ExploreSansMonoVariable-Heavy.ufo
<glyph name="exclam" format="2">
  <advance width="640"/>
  <unicode hex="0021"/>
  <outline>
    <contour>
      <point x="186" y="715" type="line"/>
      <point x="376" y="715" type="line"/>
      <point x="349" y="243" type="line"/>
      <point x="207" y="243" type="line"/>
    </contour>
    <contour>
      <point x="278" y="197" type="curve" smooth="yes"/>
      <point x="334" y="197"/>
      <point x="380" y="150"/>
      <point x="380" y="94" type="curve" smooth="yes"/>
      <point x="380" y="38"/>
      <point x="334" y="-8"/>
      <point x="278" y="-8" type="curve" smooth="yes"/>
      <point x="222" y="-8"/>
      <point x="176" y="38"/>
      <point x="176" y="94" type="curve" smooth="yes"/>
      <point x="176" y="150"/>
      <point x="222" y="197"/>
    </contour>
  </outline>
</glyph>
<glyph name="quotedbl" format="2">
  <advance width="576"/>
  <unicode hex="0022"/>
  <outline>
    <contour>
      <point x="34" y="772" type="line"/>
      <point x="180" y="772" type="line"/>
      <point x="164" y="520" type="line"/>
      <point x="50" y="520" type="line"/>
    </contour>
    <contour>
      <point x="234" y="772" type="line"/>
      <point x="380" y="772" type="line"/>
      <point x="364" y="520" type="line"/>
      <point x="250" y="520" type="line"/>
    </contour>
  </outline>
</glyph>
<glyph name="numbersign" format="2">
  <advance width="600"/>
  <unicode hex="0023"/>
  <outline>
    <contour>
      <point x="189" y="724" type="line"/>
      <point x="346" y="724" type="line"/>
      <point x="313" y="575" type="line"/>
      <point x="384" y="575" type="line"/>
      <point x="417" y="724" type="line"/>
      <point x="573" y="724" type="line"/>
      <point x="540" y="575" type="line"/>
      <point x="588" y="575" type="line"/>
      <point x="588" y="415" type="line"/>
      <point x="504" y="415" type="line"/>
      <point x="481" y="313" type="line"/>
      <point x="588" y="313" type="line"/>
      <point x="588" y="153" type="line"/>
      <point x="445" y="153" type="line"/>
      <point x="411" y="0" type="line"/>
      <point x="254" y="0" type="line"/>
      <point x="288" y="153" type="line"/>
      <point x="218" y="153" type="line"/>
      <point x="184" y="0" type="line"/>
      <point x="27" y="0" type="line"/>
      <point x="61" y="153" type="line"/>
      <point x="12" y="153" type="line"/>
      <point x="12" y="313" type="line"/>
      <point x="97" y="313" type="line"/>
      <point x="120" y="415" type="line"/>
      <point x="12" y="415" type="line"/>
      <point x="12" y="575" type="line"/>
      <point x="156" y="575" type="line"/>
    </contour>
    <contour>
      <point x="324" y="313" type="line"/>
      <point x="348" y="415" type="line"/>
      <point x="277" y="415" type="line"/>
      <point x="253" y="313" type="line"/>
    </contour>
  </outline>
</glyph>
<glyph name="dollar" format="2">
  <advance width="612"/>
  <unicode hex="0024"/>
  <outline>
    <contour>
      <point x="211" y="12" type="line"/>
      <point x="403" y="12" type="line"/>
      <point x="403" y="-139" type="line"/>
      <point x="211" y="-139" type="line"/>
    </contour>
    <contour>
      <point x="233" y="847" type="line"/>
      <point x="425" y="847" type="line"/>
      <point x="425" y="696" type="line"/>
      <point x="233" y="696" type="line"/>
    </contour>
    <component base="S"/>
  </outline>
</glyph>
<glyph name="percent" format="2">
  <advance width="600"/>
  <unicode hex="0025"/>
  <outline>
    <contour>
      <point x="523" y="571" type="line"/>
      <point x="573" y="503" type="line"/>
      <point x="78" y="140" type="line"/>
      <point x="27" y="209" type="line"/>
    </contour>
    <contour>
      <point x="432" y="332" type="curve" smooth="yes"/>
      <point x="528" y="332"/>
      <point x="592" y="263"/>
      <point x="592" y="162" type="curve" smooth="yes"/>
      <point x="592" y="60"/>
      <point x="528" y="-8"/>
      <point x="432" y="-8" type="curve" smooth="yes"/>
      <point x="336" y="-8"/>
      <point x="272" y="60"/>
      <point x="272" y="162" type="curve" smooth="yes"/>
      <point x="272" y="263"/>
      <point x="336" y="332"/>
    </contour>
    <contour>
      <point x="432" y="231" type="curve" smooth="yes"/>
      <point x="397" y="231"/>
      <point x="378" y="207"/>
      <point x="378" y="160" type="curve" smooth="yes"/>
      <point x="378" y="114"/>
      <point x="397" y="92"/>
      <point x="433" y="92" type="curve" smooth="yes"/>
      <point x="469" y="92"/>
      <point x="486" y="114"/>
      <point x="486" y="160" type="curve" smooth="yes"/>
      <point x="486" y="206"/>
      <point x="467" y="231"/>
    </contour>
    <contour>
      <point x="167" y="616" type="curve" smooth="yes"/>
      <point x="130" y="616"/>
      <point x="113" y="593"/>
      <point x="113" y="545" type="curve" smooth="yes"/>
      <point x="113" y="499"/>
      <point x="131" y="477"/>
      <point x="168" y="477" type="curve" smooth="yes"/>
      <point x="204" y="477"/>
      <point x="221" y="498"/>
      <point x="221" y="546" type="curve" smooth="yes"/>
      <point x="221" y="592"/>
      <point x="203" y="616"/>
    </contour>
    <contour>
      <point x="168" y="716" type="curve" smooth="yes"/>
      <point x="264" y="716"/>
      <point x="328" y="649"/>
      <point x="328" y="548" type="curve" smooth="yes"/>
      <point x="328" y="446"/>
      <point x="262" y="376"/>
      <point x="166" y="376" type="curve" smooth="yes"/>
      <point x="72" y="376"/>
      <point x="8" y="445"/>
      <point x="8" y="548" type="curve" smooth="yes"/>
      <point x="8" y="649"/>
      <point x="72" y="716"/>
    </contour>
  </outline>
</glyph>
<glyph name="ampersand" format="2">
  <advance width="600"/>
  <unicode hex="0026"/>
  <outline>
    <contour>
      <point x="303" y="716" type="curve" smooth="yes"/>
      <point x="353" y="716"/>
      <point x="398" y="711"/>
      <point x="440" y="690" type="curve"/>
      <point x="401" y="577" type="line"/>
      <point x="384" y="585"/>
      <point x="366" y="593"/>
      <point x="341" y="593" type="curve" smooth="yes"/>
      <point x="301" y="593"/>
      <point x="279" y="569"/>
      <point x="279" y="535" type="curve" smooth="yes"/>
      <point x="279" y="534"/>
      <point x="279" y="532"/>
      <point x="279" y="531" type="curve" smooth="yes"/>
      <point x="279" y="488"/>
      <point x="311" y="445"/>
      <point x="330" y="417" type="curve" smooth="yes"/>
      <point x="622" y="0" type="line"/>
      <point x="447" y="0" type="line"/>
      <point x="194" y="365" type="line" smooth="yes"/>
      <point x="157" y="418"/>
      <point x="114" y="473"/>
      <point x="114" y="531" type="curve" smooth="yes"/>
      <point x="114" y="532"/>
      <point x="114" y="533"/>
      <point x="114" y="535" type="curve" smooth="yes"/>
      <point x="114" y="643"/>
      <point x="188" y="716"/>
    </contour>
    <contour>
      <point x="241" y="450" type="line"/>
      <point x="266" y="342" type="line"/>
      <point x="225" y="342" type="line" smooth="yes"/>
      <point x="178" y="342"/>
      <point x="164" y="295"/>
      <point x="164" y="231" type="curve" smooth="yes"/>
      <point x="164" y="230"/>
      <point x="164" y="229"/>
      <point x="164" y="228" type="curve" smooth="yes"/>
      <point x="164" y="158"/>
      <point x="196" y="122"/>
      <point x="235" y="122" type="curve" smooth="yes"/>
      <point x="283" y="122"/>
      <point x="310" y="143"/>
      <point x="343" y="237" type="curve" smooth="yes"/>
      <point x="410" y="431" type="line"/>
      <point x="583" y="415" type="line"/>
      <point x="583" y="293" type="line"/>
      <point x="500" y="301" type="line"/>
      <point x="458" y="166" type="line"/>
      <point x="429" y="77"/>
      <point x="352" y="-8"/>
      <point x="231" y="-8" type="curve" smooth="yes"/>
      <point x="89" y="-8"/>
      <point x="12" y="74"/>
      <point x="12" y="228" type="curve" smooth="yes"/>
      <point x="12" y="229"/>
      <point x="12" y="230"/>
      <point x="12" y="231" type="curve" smooth="yes"/>
      <point x="12" y="349"/>
      <point x="72" y="450"/>
      <point x="178" y="450" type="curve" smooth="yes"/>
    </contour>
  </outline>
</glyph>
<glyph name="quotesingle" format="2">
  <advance width="576"/>
  <unicode hex="0027"/>
  <outline>
    <contour>
      <point x="18" y="772" type="line"/>
      <point x="166" y="772" type="line"/>
      <point x="150" y="527" type="line"/>
      <point x="34" y="527" type="line"/>
    </contour>
  </outline>
</glyph>
<glyph name="parenleft" format="2">
  <advance width="640"/>
  <unicode hex="0028"/>
  <outline>
    <contour>
      <point x="336" y="800" type="curve"/>
      <point x="520" y="800" type="line"/>
      <point x="445" y="734"/>
      <point x="334" y="600"/>
      <point x="334" y="371" type="curve" smooth="yes"/>
      <point x="334" y="141"/>
      <point x="437" y="-3"/>
      <point x="520" y="-64" type="curve"/>
      <point x="341" y="-64" type="line"/>
      <point x="229" y="27"/>
      <point x="142" y="176"/>
      <point x="142" y="371" type="curve" smooth="yes"/>
      <point x="142" y="548"/>
      <point x="231" y="715"/>
    </contour>
  </outline>
</glyph>
<glyph name="parenright" format="2">
  <advance width="600"/>
  <unicode hex="0029"/>
  <outline>
    <contour>
      <point x="120" y="800" type="curve"/>
      <point x="304" y="800" type="line"/>
      <point x="409" y="715"/>
      <point x="498" y="548"/>
      <point x="498" y="371" type="curve" smooth="yes"/>
      <point x="498" y="176"/>
      <point x="411" y="27"/>
      <point x="299" y="-64" type="curve"/>
      <point x="120" y="-64" type="line"/>
      <point x="203" y="-3"/>
      <point x="306" y="141"/>
      <point x="306" y="371" type="curve" smooth="yes"/>
      <point x="306" y="600"/>
      <point x="195" y="734"/>
    </contour>
  </outline>
</glyph>
<glyph name="asterisk" format="2">
  <advance width="612"/>
  <unicode hex="002A"/>
  <outline>
    <contour>
      <point x="241" y="806" type="line"/>
      <point x="370" y="806" type="line"/>
      <point x="370" y="696" type="line"/>
      <point x="362" y="667" type="line"/>
      <point x="390" y="682" type="line"/>
      <point x="501" y="713" type="line"/>
      <point x="537" y="601" type="line"/>
      <point x="405" y="558" type="line"/>
      <point x="375" y="558" type="line"/>
      <point x="401" y="538" type="line"/>
      <point x="475" y="439" type="line"/>
      <point x="377" y="372" type="line"/>
      <point x="314" y="470" type="line"/>
      <point x="305" y="496" type="line"/>
      <point x="296" y="470" type="line"/>
      <point x="233" y="372" type="line"/>
      <point x="135" y="439" type="line"/>
      <point x="210" y="539" type="line"/>
      <point x="232" y="559" type="line"/>
      <point x="201" y="559" type="line"/>
      <point x="74" y="601" type="line"/>
      <point x="109" y="713" type="line"/>
      <point x="224" y="681" type="line"/>
      <point x="248" y="667" type="line"/>
      <point x="241" y="696" type="line"/>
    </contour>
  </outline>
</glyph>
<glyph name="plus" format="2">
  <advance width="600"/>
  <unicode hex="002B"/>
  <outline>
    <contour>
      <point x="236" y="479" type="line"/>
      <point x="364" y="479" type="line"/>
      <point x="364" y="330" type="line"/>
      <point x="518" y="330" type="line"/>
      <point x="518" y="202" type="line"/>
      <point x="364" y="202" type="line"/>
      <point x="364" y="53" type="line"/>
      <point x="236" y="53" type="line"/>
      <point x="236" y="202" type="line"/>
      <point x="82" y="202" type="line"/>
      <point x="82" y="330" type="line"/>
      <point x="236" y="330" type="line"/>
    </contour>
  </outline>
</glyph>
<glyph name="comma" format="2">
  <advance width="600"/>
  <unicode hex="002C"/>
  <outline>
    <contour>
      <point x="221" y="11" type="line"/>
      <point x="221" y="19" type="line"/>
      <point x="123" y="32" type="line"/>
      <point x="123" y="166" type="line"/>
      <point x="388" y="137" type="line"/>
      <point x="388" y="27" type="line"/>
      <point x="319" y="-143" type="line"/>
      <point x="160" y="-143" type="line"/>
    </contour>
  </outline>
</glyph>
<glyph name="period" format="2">
  <advance width="612"/>
  <unicode hex="002E"/>
  <outline>
    <contour>
      <point x="287" y="196" type="curve" smooth="yes"/>
      <point x="343" y="196"/>
      <point x="389" y="161"/>
      <point x="389" y="94" type="curve" smooth="yes"/>
      <point x="389" y="26"/>
      <point x="343" y="-8"/>
      <point x="287" y="-8" type="curve" smooth="yes"/>
      <point x="231" y="-8"/>
      <point x="185" y="26"/>
      <point x="185" y="94" type="curve" smooth="yes"/>
      <point x="185" y="161"/>
      <point x="231" y="196"/>
    </contour>
  </outline>
</glyph>
<glyph name="slash" format="2">
  <advance width="600"/>
  <unicode hex="002F"/>
  <outline>
    <contour>
      <point x="403" y="772" type="line"/>
      <point x="577" y="772" type="line"/>
      <point x="239" y="-34" type="line"/>
      <point x="65" y="-34" type="line"/>
    </contour>
  </outline>
</glyph>
<glyph name="zero" format="2">
  <advance width="640"/>
  <unicode hex="0030"/>
  <outline>
    <contour>
      <point x="321" y="556" type="curve" smooth="yes"/>
      <point x="247" y="556"/>
      <point x="216" y="484"/>
      <point x="216" y="358" type="curve" smooth="yes"/>
      <point x="216" y="222"/>
      <point x="248" y="153"/>
      <point x="320" y="153" type="curve" smooth="yes"/>
      <point x="393" y="153"/>
      <point x="424" y="220"/>
      <point x="424" y="361" type="curve" smooth="yes"/>
      <point x="424" y="485"/>
      <point x="395" y="556"/>
    </contour>
    <contour>
      <point x="322" y="716" type="curve" smooth="yes"/>
      <point x="505" y="716"/>
      <point x="616" y="613"/>
      <point x="616" y="356" type="curve" smooth="yes"/>
      <point x="616" y="100"/>
      <point x="505" y="-7"/>
      <point x="321" y="-7" type="curve" smooth="yes"/>
      <point x="139" y="-7"/>
      <point x="24" y="97"/>
      <point x="24" y="355" type="curve" smooth="yes"/>
      <point x="24" y="613"/>
      <point x="139" y="716"/>
    </contour>
  </outline>
</glyph>
<glyph name="one" format="2">
  <advance width="600"/>
  <unicode hex="0031"/>
  <outline>
    <contour>
      <point x="289" y="708" type="line"/>
      <point x="417" y="708" type="line"/>
      <point x="417" y="160" type="line"/>
      <point x="558" y="160" type="line"/>
      <point x="558" y="0" type="line"/>
      <point x="42" y="0" type="line"/>
      <point x="42" y="160" type="line"/>
      <point x="225" y="160" type="line"/>
      <point x="225" y="516" type="line"/>
      <point x="51" y="450" type="line"/>
      <point x="51" y="620" type="line"/>
    </contour>
  </outline>
</glyph>
<glyph name="two" format="2">
  <advance width="600"/>
  <unicode hex="0032"/>
  <outline>
    <contour>
      <point x="36" y="626" type="line"/>
      <point x="103" y="673"/>
      <point x="187" y="716"/>
      <point x="282" y="716" type="curve" smooth="yes"/>
      <point x="466" y="716"/>
      <point x="547" y="626"/>
      <point x="547" y="509" type="curve" smooth="yes"/>
      <point x="547" y="396"/>
      <point x="464" y="304"/>
      <point x="386" y="238" type="curve" smooth="yes"/>
      <point x="386" y="238"/>
      <point x="303" y="161"/>
      <point x="303" y="160" type="curve"/>
      <point x="559" y="160" type="line"/>
      <point x="558" y="0" type="line"/>
      <point x="49" y="0" type="line"/>
      <point x="49" y="130" type="line"/>
      <point x="273" y="354" type="line" smooth="yes"/>
      <point x="329" y="410"/>
      <point x="354" y="442"/>
      <point x="354" y="482" type="curve" smooth="yes"/>
      <point x="354" y="522"/>
      <point x="331" y="560"/>
      <point x="262" y="560" type="curve" smooth="yes"/>
      <point x="198" y="560"/>
      <point x="162" y="534"/>
      <point x="115" y="499" type="curve"/>
    </contour>
  </outline>
</glyph>
<glyph name="three" format="2">
  <advance width="600"/>
  <unicode hex="0033"/>
  <outline>
    <contour>
      <point x="87" y="708" type="line"/>
      <point x="548" y="708" type="line"/>
      <point x="548" y="596" type="line"/>
      <point x="390" y="425" type="line"/>
      <point x="471" y="425"/>
      <point x="573" y="374"/>
      <point x="573" y="233" type="curve" smooth="yes"/>
      <point x="573" y="58"/>
      <point x="441" y="-8"/>
      <point x="278" y="-8" type="curve" smooth="yes"/>
      <point x="168" y="-8"/>
      <point x="100" y="16"/>
      <point x="25" y="68" type="curve"/>
      <point x="102" y="204" type="line"/>
      <point x="151" y="169"/>
      <point x="206" y="144"/>
      <point x="273" y="144" type="curve" smooth="yes"/>
      <point x="350" y="144"/>
      <point x="381" y="176"/>
      <point x="381" y="230" type="curve" smooth="yes"/>
      <point x="381" y="280"/>
      <point x="338" y="306"/>
      <point x="285" y="306" type="curve" smooth="yes"/>
      <point x="228" y="306" type="line"/>
      <point x="186" y="419" type="line"/>
      <point x="317" y="558" type="line"/>
      <point x="87" y="558" type="line"/>
    </contour>
  </outline>
</glyph>
<glyph name="four" format="2">
  <advance width="600"/>
  <unicode hex="0034"/>
  <outline>
    <contour>
      <point x="241" y="708" type="line"/>
      <point x="438" y="708" type="line"/>
      <point x="218" y="283" type="line"/>
      <point x="383" y="283" type="line"/>
      <point x="383" y="484" type="line"/>
      <point x="559" y="484" type="line"/>
      <point x="559" y="0" type="line"/>
      <point x="383" y="0" type="line"/>
      <point x="383" y="123" type="line"/>
      <point x="31" y="123" type="line"/>
      <point x="31" y="283" type="line"/>
    </contour>
  </outline>
</glyph>
<glyph name="five" format="2">
  <advance width="600"/>
  <unicode hex="0035"/>
  <outline>
    <contour>
      <point x="49" y="708" type="line"/>
      <point x="531" y="708" type="line"/>
      <point x="531" y="548" type="line"/>
      <point x="224" y="548" type="line"/>
      <point x="221" y="398" type="line"/>
      <point x="245" y="429"/>
      <point x="283" y="462"/>
      <point x="350" y="462" type="curve" smooth="yes"/>
      <point x="478" y="462"/>
      <point x="564" y="394"/>
      <point x="564" y="240" type="curve" smooth="yes"/>
      <point x="564" y="88"/>
      <point x="461" y="-8"/>
      <point x="280" y="-8" type="curve" smooth="yes"/>
      <point x="139" y="-8"/>
      <point x="67" y="26"/>
      <point x="19" y="70" type="curve"/>
      <point x="102" y="207" type="line"/>
      <point x="118" y="195"/>
      <point x="173" y="147"/>
      <point x="262" y="147" type="curve" smooth="yes"/>
      <point x="328" y="147"/>
      <point x="372" y="173"/>
      <point x="372" y="238" type="curve" smooth="yes"/>
      <point x="372" y="298"/>
      <point x="341" y="324"/>
      <point x="298" y="324" type="curve" smooth="yes"/>
      <point x="258" y="324"/>
      <point x="236" y="303"/>
      <point x="218" y="276" type="curve"/>
      <point x="47" y="276" type="line"/>
    </contour>
  </outline>
</glyph>
<glyph name="six" format="2">
  <advance width="600"/>
  <unicode hex="0036"/>
  <outline>
    <contour>
      <point x="467" y="716" type="curve"/>
      <point x="475" y="562" type="line"/>
      <point x="377" y="551"/>
      <point x="244" y="497"/>
      <point x="224" y="385" type="curve"/>
      <point x="237" y="430"/>
      <point x="287" y="460"/>
      <point x="359" y="460" type="curve" smooth="yes"/>
      <point x="487" y="460"/>
      <point x="572" y="379"/>
      <point x="572" y="229" type="curve" smooth="yes"/>
      <point x="572" y="228"/>
      <point x="572" y="228"/>
      <point x="572" y="227" type="curve" smooth="yes"/>
      <point x="572" y="82"/>
      <point x="472" y="-8"/>
      <point x="301" y="-8" type="curve" smooth="yes"/>
      <point x="115" y="-8"/>
      <point x="31" y="110"/>
      <point x="31" y="268" type="curve" smooth="yes"/>
      <point x="31" y="286"/>
      <point x="31" y="289"/>
      <point x="31" y="308" type="curve" smooth="yes"/>
      <point x="31" y="593"/>
      <point x="287" y="704"/>
    </contour>
    <contour>
      <point x="298" y="323" type="curve" smooth="yes"/>
      <point x="259" y="323"/>
      <point x="239" y="308"/>
      <point x="223" y="295" type="curve"/>
      <point x="220" y="265"/>
      <point x="221" y="245"/>
      <point x="221" y="233" type="curve" smooth="yes"/>
      <point x="221" y="175"/>
      <point x="246" y="150"/>
      <point x="299" y="150" type="curve" smooth="yes"/>
      <point x="346" y="150"/>
      <point x="380" y="175"/>
      <point x="380" y="232" type="curve" smooth="yes"/>
      <point x="380" y="232"/>
      <point x="380" y="233"/>
      <point x="380" y="234" type="curve" smooth="yes"/>
      <point x="380" y="290"/>
      <point x="349" y="323"/>
    </contour>
  </outline>
</glyph>
<glyph name="seven" format="2">
  <advance width="640"/>
  <unicode hex="0037"/>
  <outline>
    <contour>
      <point x="32" y="708" type="line"/>
      <point x="555" y="708" type="line"/>
      <point x="555" y="548" type="line"/>
      <point x="318" y="0" type="line"/>
      <point x="113" y="0" type="line"/>
      <point x="365" y="548" type="line"/>
      <point x="32" y="548" type="line"/>
    </contour>
  </outline>
</glyph>
<glyph name="eight" format="2">
  <advance width="600"/>
  <unicode hex="0038"/>
  <outline>
    <contour>
      <point x="298" y="716" type="curve" smooth="yes"/>
      <point x="463" y="716"/>
      <point x="559" y="646"/>
      <point x="559" y="524" type="curve" smooth="yes"/>
      <point x="559" y="523"/>
      <point x="559" y="521"/>
      <point x="559" y="520" type="curve" smooth="yes"/>
      <point x="559" y="453"/>
      <point x="527" y="402"/>
      <point x="463" y="371" type="curve"/>
      <point x="540" y="339"/>
      <point x="576" y="283"/>
      <point x="576" y="200" type="curve" smooth="yes"/>
      <point x="576" y="199"/>
      <point x="576" y="199"/>
      <point x="576" y="198" type="curve" smooth="yes"/>
      <point x="576" y="70"/>
      <point x="473" y="-7"/>
      <point x="298" y="-7" type="curve" smooth="yes"/>
      <point x="124" y="-7"/>
      <point x="24" y="70"/>
      <point x="24" y="198" type="curve" smooth="yes"/>
      <point x="24" y="199"/>
      <point x="24" y="199"/>
      <point x="24" y="200" type="curve" smooth="yes"/>
      <point x="24" y="283"/>
      <point x="59" y="340"/>
      <point x="134" y="371" type="curve"/>
      <point x="72" y="402"/>
      <point x="40" y="453"/>
      <point x="40" y="520" type="curve" smooth="yes"/>
      <point x="40" y="521"/>
      <point x="40" y="523"/>
      <point x="40" y="524" type="curve" smooth="yes"/>
      <point x="40" y="646"/>
      <point x="134" y="716"/>
    </contour>
    <contour>
      <point x="301" y="580" type="curve" smooth="yes"/>
      <point x="250" y="580"/>
      <point x="224" y="554"/>
      <point x="224" y="508" type="curve" smooth="yes"/>
      <point x="224" y="508"/>
      <point x="224" y="507"/>
      <point x="224" y="506" type="curve" smooth="yes"/>
      <point x="224" y="459"/>
      <point x="247" y="434"/>
      <point x="299" y="434" type="curve" smooth="yes"/>
      <point x="353" y="434"/>
      <point x="375" y="460"/>
      <point x="375" y="506" type="curve" smooth="yes"/>
      <point x="375" y="507"/>
      <point x="375" y="507"/>
      <point x="375" y="508" type="curve" smooth="yes"/>
      <point x="375" y="554"/>
      <point x="351" y="580"/>
    </contour>
    <contour>
      <point x="299" y="297" type="curve" smooth="yes"/>
      <point x="239" y="297"/>
      <point x="216" y="264"/>
      <point x="216" y="215" type="curve" smooth="yes"/>
      <point x="216" y="214"/>
      <point x="216" y="213"/>
      <point x="216" y="213" type="curve" smooth="yes"/>
      <point x="216" y="165"/>
      <point x="238" y="133"/>
      <point x="301" y="133" type="curve" smooth="yes"/>
      <point x="356" y="133"/>
      <point x="384" y="165"/>
      <point x="384" y="213" type="curve" smooth="yes"/>
      <point x="384" y="213"/>
      <point x="384" y="214"/>
      <point x="384" y="215" type="curve" smooth="yes"/>
      <point x="384" y="264"/>
      <point x="360" y="297"/>
    </contour>
  </outline>
</glyph>
<glyph name="nine" format="2">
  <advance width="600"/>
  <unicode hex="0039"/>
  <outline>
    <contour>
      <point x="99" y="145" type="line"/>
      <point x="194" y="145"/>
      <point x="373" y="203"/>
      <point x="378" y="337" type="curve"/>
      <point x="366" y="293"/>
      <point x="320" y="252"/>
      <point x="233" y="252" type="curve" smooth="yes"/>
      <point x="95" y="252"/>
      <point x="34" y="346"/>
      <point x="34" y="463" type="curve" smooth="yes"/>
      <point x="34" y="468"/>
      <point x="34" y="469"/>
      <point x="34" y="472" type="curve" smooth="yes"/>
      <point x="34" y="620"/>
      <point x="150" y="716"/>
      <point x="301" y="716" type="curve" smooth="yes"/>
      <point x="476" y="716"/>
      <point x="567" y="622"/>
      <point x="567" y="440" type="curve" smooth="yes"/>
      <point x="567" y="414"/>
      <point x="567" y="412"/>
      <point x="567" y="410" type="curve" smooth="yes"/>
      <point x="567" y="113"/>
      <point x="309" y="-8"/>
      <point x="124" y="-8" type="curve"/>
    </contour>
    <contour>
      <point x="305" y="556" type="curve" smooth="yes"/>
      <point x="261" y="556"/>
      <point x="226" y="530"/>
      <point x="226" y="472" type="curve" smooth="yes"/>
      <point x="226" y="471"/>
      <point x="226" y="469"/>
      <point x="226" y="463" type="curve" smooth="yes"/>
      <point x="226" y="415"/>
      <point x="262" y="385"/>
      <point x="304" y="385" type="curve" smooth="yes"/>
      <point x="343" y="385"/>
      <point x="360" y="394"/>
      <point x="382" y="412" type="curve"/>
      <point x="382" y="474" type="line"/>
      <point x="382" y="529"/>
      <point x="355" y="556"/>
    </contour>
  </outline>
</glyph>
<glyph name="colon" format="2">
  <advance width="576"/>
  <unicode hex="003A"/>
  <outline>
    <contour>
      <point x="147" y="528" type="curve" smooth="yes"/>
      <point x="203" y="528"/>
      <point x="249" y="494"/>
      <point x="249" y="426" type="curve" smooth="yes"/>
      <point x="249" y="359"/>
      <point x="203" y="324"/>
      <point x="147" y="324" type="curve" smooth="yes"/>
      <point x="91" y="324"/>
      <point x="45" y="359"/>
      <point x="45" y="426" type="curve" smooth="yes"/>
      <point x="45" y="494"/>
      <point x="91" y="528"/>
    </contour>
    <contour>
      <point x="147" y="196" type="curve" smooth="yes"/>
      <point x="203" y="196"/>
      <point x="249" y="162"/>
      <point x="249" y="94" type="curve" smooth="yes"/>
      <point x="249" y="27"/>
      <point x="203" y="-8"/>
      <point x="147" y="-8" type="curve" smooth="yes"/>
      <point x="91" y="-8"/>
      <point x="45" y="27"/>
      <point x="45" y="94" type="curve" smooth="yes"/>
      <point x="45" y="162"/>
      <point x="91" y="196"/>
    </contour>
  </outline>
</glyph>
<glyph name="less" format="2">
  <advance width="600"/>
  <unicode hex="003C"/>
  <outline>
    <contour>
      <point x="64" y="331" type="line"/>
      <point x="498" y="511" type="line"/>
      <point x="545" y="390" type="line"/>
      <point x="252" y="278" type="line"/>
      <point x="545" y="167" type="line"/>
      <point x="498" y="46" type="line"/>
      <point x="64" y="226" type="line"/>
    </contour>
  </outline>
</glyph>
<glyph name="equal" format="2">
  <advance width="612"/>
  <unicode hex="003D"/>
  <outline>
    <contour>
      <point x="64" y="434" type="line"/>
      <point x="548" y="434" type="line"/>
      <point x="548" y="326" type="line"/>
      <point x="64" y="326" type="line"/>
    </contour>
    <contour>
      <point x="64" y="246" type="line"/>
      <point x="548" y="246" type="line"/>
      <point x="548" y="138" type="line"/>
      <point x="64" y="138" type="line"/>
    </contour>
  </outline>
</glyph>
<glyph name="greater" format="2">
  <advance width="600"/>
  <unicode hex="003E"/>
  <outline>
    <contour>
      <point x="102" y="511" type="line"/>
      <point x="536" y="331" type="line"/>
      <point x="536" y="226" type="line"/>
      <point x="102" y="46" type="line"/>
      <point x="55" y="167" type="line"/>
      <point x="348" y="278" type="line"/>
      <point x="55" y="390" type="line"/>
    </contour>
  </outline>
</glyph>
<glyph name="question" format="2">
  <advance width="576"/>
  <unicode hex="003F"/>
  <outline>
    <contour>
      <point x="278" y="732" type="curve" smooth="yes"/>
      <point x="425" y="732"/>
      <point x="530" y="668"/>
      <point x="530" y="537" type="curve" smooth="yes"/>
      <point x="530" y="452"/>
      <point x="490" y="406"/>
      <point x="424" y="370" type="curve" smooth="yes"/>
      <point x="366" y="338"/>
      <point x="347" y="318"/>
      <point x="347" y="280" type="curve" smooth="yes"/>
      <point x="347" y="262"/>
      <point x="347" y="253"/>
      <point x="347" y="240" type="curve"/>
      <point x="173" y="219" type="line"/>
      <point x="169" y="229"/>
      <point x="163" y="254"/>
      <point x="163" y="279" type="curve" smooth="yes"/>
      <point x="163" y="333"/>
      <point x="174" y="389"/>
      <point x="253" y="430" type="curve" smooth="yes"/>
      <point x="335" y="473"/>
      <point x="345" y="490"/>
      <point x="345" y="521" type="curve" smooth="yes"/>
      <point x="345" y="563"/>
      <point x="308" y="583"/>
      <point x="256" y="583" type="curve" smooth="yes"/>
      <point x="203" y="583"/>
      <point x="143" y="555"/>
      <point x="112" y="534" type="curve"/>
      <point x="36" y="659" type="line"/>
      <point x="110" y="707"/>
      <point x="182" y="732"/>
    </contour>
    <contour>
      <point x="266" y="196" type="curve" smooth="yes"/>
      <point x="331" y="196"/>
      <point x="370" y="144"/>
      <point x="370" y="92" type="curve" smooth="yes"/>
      <point x="370" y="39"/>
      <point x="329" y="-8"/>
      <point x="266" y="-8" type="curve" smooth="yes"/>
      <point x="200" y="-8"/>
      <point x="166" y="41"/>
      <point x="166" y="92" type="curve" smooth="yes"/>
      <point x="166" y="143"/>
      <point x="199" y="196"/>
    </contour>
  </outline>
</glyph>
<glyph name="at" format="2">
  <advance width="600"/>
  <unicode hex="0040"/>
  <outline>
    <contour>
      <point x="368" y="800" type="curve" smooth="yes"/>
      <point x="479" y="800"/>
      <point x="594" y="746"/>
      <point x="594" y="565" type="curve"/>
      <point x="546" y="265" type="line"/>
      <point x="600" y="197" type="line"/>
      <point x="510" y="118" type="line"/>
      <point x="466" y="174" type="line"/>
      <point x="447" y="143"/>
      <point x="403" y="116"/>
      <point x="333" y="116" type="curve" smooth="yes"/>
      <point x="242" y="116"/>
      <point x="185" y="188"/>
      <point x="185" y="305" type="curve" smooth="yes"/>
      <point x="184" y="456"/>
      <point x="257" y="577"/>
      <point x="379" y="577" type="curve" smooth="yes"/>
      <point x="416" y="577"/>
      <point x="449" y="557"/>
      <point x="461" y="540" type="curve"/>
      <point x="466" y="576" type="line"/>
      <point x="466" y="642"/>
      <point x="409" y="670"/>
      <point x="358" y="670" type="curve" smooth="yes"/>
      <point x="238" y="670"/>
      <point x="147" y="529"/>
      <point x="147" y="317" type="curve" smooth="yes"/>
      <point x="147" y="89"/>
      <point x="218" y="12"/>
      <point x="340" y="12" type="curve" smooth="yes"/>
      <point x="433" y="12"/>
      <point x="499" y="38"/>
      <point x="538" y="55" type="curve"/>
      <point x="538" y="-67" type="line"/>
      <point x="491" y="-87"/>
      <point x="416" y="-114"/>
      <point x="317" y="-114" type="curve" smooth="yes"/>
      <point x="131" y="-114"/>
      <point x="10" y="-21"/>
      <point x="10" y="317" type="curve" smooth="yes"/>
      <point x="10" y="635"/>
      <point x="161" y="800"/>
    </contour>
    <contour>
      <point x="397" y="464" type="curve" smooth="yes"/>
      <point x="344" y="464"/>
      <point x="317" y="393"/>
      <point x="317" y="325" type="curve" smooth="yes"/>
      <point x="317" y="269"/>
      <point x="330" y="243"/>
      <point x="364" y="243" type="curve" smooth="yes"/>
      <point x="404" y="243"/>
      <point x="417" y="285"/>
      <point x="425" y="337" type="curve" smooth="yes"/>
      <point x="440" y="438" type="line"/>
      <point x="433" y="446"/>
      <point x="420" y="464"/>
    </contour>
  </outline>
</glyph>
<glyph name="A" format="2">
  <advance width="640"/>
  <unicode hex="0041"/>
  <anchor x="336" y="881" name="AccentCenter"/>
  <outline>
    <contour>
      <point x="209" y="708" type="line"/>
      <point x="434" y="708" type="line"/>
      <point x="644" y="0" type="line"/>
      <point x="452" y="0" type="line"/>
      <point x="414" y="153" type="line"/>
      <point x="235" y="153" type="line"/>
      <point x="196" y="0" type="line"/>
      <point x="-4" y="0" type="line"/>
    </contour>
    <contour>
      <point x="316" y="528" type="line"/>
      <point x="262" y="293" type="line"/>
      <point x="387" y="293" type="line"/>
      <point x="332" y="528" type="line"/>
    </contour>
  </outline>
</glyph>
<glyph name="B" format="2">
  <advance width="600"/>
  <unicode hex="0042"/>
  <outline>
    <contour>
      <point x="48" y="708" type="line"/>
      <point x="334" y="708" type="line" smooth="yes"/>
      <point x="469" y="708"/>
      <point x="561" y="642"/>
      <point x="561" y="531" type="curve" smooth="yes"/>
      <point x="561" y="530"/>
      <point x="561" y="529"/>
      <point x="561" y="528" type="curve" smooth="yes"/>
      <point x="561" y="435"/>
      <point x="516" y="390"/>
      <point x="459" y="373" type="curve"/>
      <point x="541" y="356"/>
      <point x="592" y="311"/>
      <point x="592" y="199" type="curve" smooth="yes"/>
      <point x="592" y="198"/>
      <point x="592" y="197"/>
      <point x="592" y="196" type="curve" smooth="yes"/>
      <point x="592" y="56"/>
      <point x="470" y="0"/>
      <point x="354" y="0" type="curve" smooth="yes"/>
      <point x="48" y="0" type="line"/>
    </contour>
    <contour>
      <point x="240" y="548" type="line"/>
      <point x="240" y="437" type="line"/>
      <point x="305" y="437" type="line" smooth="yes"/>
      <point x="348" y="437"/>
      <point x="373" y="455"/>
      <point x="373" y="491" type="curve" smooth="yes"/>
      <point x="373" y="492"/>
      <point x="373" y="493"/>
      <point x="373" y="494" type="curve" smooth="yes"/>
      <point x="373" y="528"/>
      <point x="350" y="548"/>
      <point x="306" y="548" type="curve" smooth="yes"/>
    </contour>
    <contour>
      <point x="240" y="297" type="line"/>
      <point x="240" y="160" type="line"/>
      <point x="317" y="160" type="line" smooth="yes"/>
      <point x="373" y="160"/>
      <point x="404" y="179"/>
      <point x="404" y="228" type="curve" smooth="yes"/>
      <point x="404" y="229"/>
      <point x="404" y="230"/>
      <point x="404" y="231" type="curve" smooth="yes"/>
      <point x="404" y="280"/>
      <point x="373" y="297"/>
      <point x="314" y="297" type="curve" smooth="yes"/>
    </contour>
  </outline>
</glyph>
<glyph name="C" format="2">
  <advance width="600"/>
  <unicode hex="0043"/>
  <outline>
    <contour>
      <point x="355" y="716" type="curve" smooth="yes"/>
      <point x="448" y="716"/>
      <point x="494" y="701"/>
      <point x="563" y="660" type="curve"/>
      <point x="503" y="525" type="line"/>
      <point x="464" y="550"/>
      <point x="422" y="564"/>
      <point x="369" y="564" type="curve" smooth="yes"/>
      <point x="275" y="564"/>
      <point x="224" y="485"/>
      <point x="224" y="353" type="curve" smooth="yes"/>
      <point x="224" y="218"/>
      <point x="269" y="144"/>
      <point x="372" y="144" type="curve" smooth="yes"/>
      <point x="427" y="144"/>
      <point x="477" y="158"/>
      <point x="523" y="190" type="curve"/>
      <point x="576" y="51" type="line"/>
      <point x="516" y="7"/>
      <point x="445" y="-8"/>
      <point x="357" y="-8" type="curve" smooth="yes"/>
      <point x="157" y="-8"/>
      <point x="32" y="132"/>
      <point x="32" y="353" type="curve" smooth="yes"/>
      <point x="32" y="577"/>
      <point x="165" y="716"/>
    </contour>
  </outline>
</glyph>
<glyph name="D" format="2">
  <advance width="600"/>
  <unicode hex="0044"/>
  <outline>
    <contour>
      <point x="240" y="548" type="line"/>
      <point x="240" y="160" type="line"/>
      <point x="267" y="160" type="line" smooth="yes"/>
      <point x="352" y="160"/>
      <point x="396" y="226"/>
      <point x="396" y="361" type="curve" smooth="yes"/>
      <point x="396" y="490"/>
      <point x="348" y="548"/>
      <point x="269" y="548" type="curve" smooth="yes"/>
    </contour>
    <contour>
      <point x="48" y="708" type="line"/>
      <point x="264" y="708" type="line" smooth="yes"/>
      <point x="478" y="708"/>
      <point x="588" y="566"/>
      <point x="588" y="361" type="curve" smooth="yes"/>
      <point x="588" y="138"/>
      <point x="485" y="0"/>
      <point x="268" y="0" type="curve" smooth="yes"/>
      <point x="48" y="0" type="line"/>
    </contour>
  </outline>
</glyph>
<glyph name="E" format="2">
  <advance width="640"/>
  <unicode hex="0045"/>
  <anchor x="339" y="880" name="AccentCenter"/>
  <outline>
    <contour>
      <point x="48" y="708" type="line"/>
      <point x="586" y="708" type="line"/>
      <point x="586" y="548" type="line"/>
      <point x="240" y="548" type="line"/>
      <point x="240" y="438" type="line"/>
      <point x="485" y="438" type="line"/>
      <point x="485" y="288" type="line"/>
      <point x="240" y="288" type="line"/>
      <point x="240" y="160" type="line"/>
      <point x="600" y="160" type="line"/>
      <point x="600" y="0" type="line"/>
      <point x="48" y="0" type="line"/>
    </contour>
  </outline>
</glyph>
<glyph name="G" format="2">
  <advance width="640"/>
  <unicode hex="0047"/>
  <outline>
    <contour>
      <point x="344" y="716" type="curve" smooth="yes"/>
      <point x="437" y="716"/>
      <point x="519" y="691"/>
      <point x="586" y="632" type="curve"/>
      <point x="500" y="516" type="line"/>
      <point x="456" y="550"/>
      <point x="396" y="561"/>
      <point x="359" y="561" type="curve" smooth="yes"/>
      <point x="256" y="561"/>
      <point x="208" y="495"/>
      <point x="208" y="349" type="curve" smooth="yes"/>
      <point x="208" y="203"/>
      <point x="253" y="143"/>
      <point x="364" y="143" type="curve" smooth="yes"/>
      <point x="385" y="143"/>
      <point x="415" y="146"/>
      <point x="422" y="148" type="curve"/>
      <point x="422" y="282" type="line"/>
      <point x="310" y="282" type="line"/>
      <point x="310" y="421" type="line"/>
      <point x="600" y="421" type="line"/>
      <point x="600" y="30" type="line"/>
      <point x="569" y="19"/>
      <point x="469" y="-8"/>
      <point x="352" y="-8" type="curve" smooth="yes"/>
      <point x="133" y="-8"/>
      <point x="16" y="120"/>
      <point x="16" y="352" type="curve" smooth="yes"/>
      <point x="16" y="586"/>
      <point x="136" y="716"/>
    </contour>
  </outline>
</glyph>
<glyph name="H" format="2">
  <advance width="612"/>
  <unicode hex="0048"/>
  <outline>
    <contour>
      <point x="40" y="708" type="line"/>
      <point x="232" y="708" type="line"/>
      <point x="232" y="451" type="line"/>
      <point x="380" y="451" type="line"/>
      <point x="380" y="708" type="line"/>
      <point x="572" y="708" type="line"/>
      <point x="572" y="0" type="line"/>
      <point x="380" y="0" type="line"/>
      <point x="380" y="281" type="line"/>
      <point x="232" y="281" type="line"/>
      <point x="232" y="0" type="line"/>
      <point x="40" y="0" type="line"/>
    </contour>
  </outline>
</glyph>
<glyph name="I" format="2">
  <advance width="600"/>
  <unicode hex="0049"/>
  <anchor x="306" y="876" name="AccentCenter"/>
  <outline>
    <contour>
      <point x="64" y="708" type="line"/>
      <point x="536" y="708" type="line"/>
      <point x="536" y="548" type="line"/>
      <point x="396" y="548" type="line"/>
      <point x="396" y="160" type="line"/>
      <point x="536" y="160" type="line"/>
      <point x="536" y="0" type="line"/>
      <point x="64" y="0" type="line"/>
      <point x="64" y="160" type="line"/>
      <point x="204" y="160" type="line"/>
      <point x="204" y="548" type="line"/>
      <point x="64" y="548" type="line"/>
    </contour>
  </outline>
</glyph>
<glyph name="J" format="2">
  <advance width="640"/>
  <unicode hex="004A"/>
  <outline>
    <contour>
      <point x="240" y="708" type="line"/>
      <point x="592" y="708" type="line"/>
      <point x="592" y="266" type="line" smooth="yes"/>
      <point x="592" y="87"/>
      <point x="489" y="-8"/>
      <point x="314" y="-8" type="curve" smooth="yes"/>
      <point x="150" y="-8"/>
      <point x="79" y="79"/>
      <point x="50" y="108" type="curve"/>
      <point x="145" y="227" type="line"/>
      <point x="171" y="198"/>
      <point x="222" y="150"/>
      <point x="295" y="150" type="curve" smooth="yes"/>
      <point x="366" y="150"/>
      <point x="400" y="193"/>
      <point x="400" y="262" type="curve" smooth="yes"/>
      <point x="400" y="558" type="line"/>
      <point x="240" y="558" type="line"/>
    </contour>
  </outline>
</glyph>
<glyph name="L" format="2">
  <advance width="600"/>
  <unicode hex="004C"/>
  <outline>
    <contour>
      <point x="48" y="708" type="line"/>
      <point x="240" y="708" type="line"/>
      <point x="240" y="160" type="line"/>
      <point x="576" y="160" type="line"/>
      <point x="576" y="0" type="line"/>
      <point x="48" y="0" type="line"/>
    </contour>
  </outline>
</glyph>
<glyph name="M" format="2">
  <advance width="612"/>
  <unicode hex="004D"/>
  <outline>
    <contour>
      <point x="40" y="708" type="line"/>
      <point x="220" y="708" type="line"/>
      <point x="304" y="370" type="line"/>
      <point x="392" y="708" type="line"/>
      <point x="572" y="708" type="line"/>
      <point x="572" y="0" type="line"/>
      <point x="393" y="0" type="line"/>
      <point x="393" y="189" type="line"/>
      <point x="414" y="441" type="line"/>
      <point x="346" y="152" type="line"/>
      <point x="267" y="152" type="line"/>
      <point x="198" y="441" type="line"/>
      <point x="219" y="189" type="line"/>
      <point x="219" y="0" type="line"/>
      <point x="40" y="0" type="line"/>
    </contour>
  </outline>
</glyph>
<glyph name="N" format="2">
  <advance width="512"/>
  <unicode hex="004E"/>
  <outline>
    <contour>
      <point x="64" y="708" type="line"/>
      <point x="256" y="708" type="line"/>
      <point x="501" y="332" type="line"/>
      <point x="501" y="708" type="line"/>
      <point x="693" y="708" type="line"/>
      <point x="693" y="0" type="line"/>
      <point x="501" y="0" type="line"/>
      <point x="256" y="396" type="line"/>
      <point x="256" y="0" type="line"/>
      <point x="64" y="0" type="line"/>
    </contour>
  </outline>
</glyph>
<glyph name="O" format="2">
  <advance width="640"/>
  <unicode hex="004F"/>
  <anchor x="362" y="881" name="AccentCenter"/>
  <outline>
    <contour>
      <point x="321" y="716" type="curve" smooth="yes"/>
      <point x="505" y="716"/>
      <point x="624" y="617"/>
      <point x="624" y="357" type="curve" smooth="yes"/>
      <point x="624" y="93"/>
      <point x="502" y="-8"/>
      <point x="321" y="-8" type="curve" smooth="yes"/>
      <point x="140" y="-8"/>
      <point x="16" y="94"/>
      <point x="16" y="357" type="curve" smooth="yes"/>
      <point x="16" y="617"/>
      <point x="137" y="716"/>
    </contour>
    <contour>
      <point x="321" y="556" type="curve" smooth="yes"/>
      <point x="254" y="556"/>
      <point x="208" y="504"/>
      <point x="208" y="357" type="curve" smooth="yes"/>
      <point x="208" y="207"/>
      <point x="254" y="152"/>
      <point x="321" y="152" type="curve" smooth="yes"/>
      <point x="386" y="152"/>
      <point x="432" y="207"/>
      <point x="432" y="357" type="curve" smooth="yes"/>
      <point x="432" y="505"/>
      <point x="388" y="556"/>
    </contour>
  </outline>
</glyph>
<glyph name="P" format="2">
  <advance width="600"/>
  <unicode hex="0050"/>
  <outline>
    <contour>
      <point x="240" y="548" type="line"/>
      <point x="240" y="376" type="line"/>
      <point x="304" y="376" type="line" smooth="yes"/>
      <point x="361" y="376"/>
      <point x="388" y="407"/>
      <point x="388" y="464" type="curve" smooth="yes"/>
      <point x="388" y="518"/>
      <point x="360" y="548"/>
      <point x="304" y="548" type="curve" smooth="yes"/>
    </contour>
    <contour>
      <point x="48" y="708" type="line"/>
      <point x="325" y="708" type="line" smooth="yes"/>
      <point x="491" y="708"/>
      <point x="580" y="614"/>
      <point x="580" y="464" type="curve" smooth="yes"/>
      <point x="580" y="306"/>
      <point x="490" y="216"/>
      <point x="306" y="216" type="curve" smooth="yes"/>
      <point x="240" y="216" type="line"/>
      <point x="240" y="0" type="line"/>
      <point x="48" y="0" type="line"/>
    </contour>
  </outline>
</glyph>
<glyph name="Q" format="2">
  <advance width="612"/>
  <unicode hex="0051"/>
  <outline>
    <contour>
      <point x="306" y="556" type="curve" smooth="yes"/>
      <point x="242" y="556"/>
      <point x="216" y="495"/>
      <point x="216" y="357" type="curve" smooth="yes"/>
      <point x="216" y="219"/>
      <point x="239" y="153"/>
      <point x="306" y="153" type="curve" smooth="yes"/>
      <point x="371" y="153"/>
      <point x="396" y="219"/>
      <point x="396" y="357" type="curve" smooth="yes"/>
      <point x="396" y="495"/>
      <point x="372" y="556"/>
    </contour>
    <contour>
      <point x="306" y="716" type="curve" smooth="yes"/>
      <point x="474" y="716"/>
      <point x="588" y="601"/>
      <point x="588" y="357" type="curve" smooth="yes"/>
      <point x="588" y="145"/>
      <point x="511" y="31"/>
      <point x="372" y="0" type="curve"/>
      <point x="372" y="-21"/>
      <point x="387" y="-34"/>
      <point x="412" y="-34" type="curve" smooth="yes"/>
      <point x="513" y="-34" type="line"/>
      <point x="526" y="-178" type="line"/>
      <point x="486" y="-182"/>
      <point x="437" y="-184"/>
      <point x="409" y="-184" type="curve" smooth="yes"/>
      <point x="297" y="-184"/>
      <point x="226" y="-114"/>
      <point x="220" y="5" type="curve"/>
      <point x="94" y="44"/>
      <point x="24" y="154"/>
      <point x="24" y="357" type="curve" smooth="yes"/>
      <point x="24" y="600"/>
      <point x="138" y="716"/>
    </contour>
  </outline>
</glyph>
<glyph name="R" format="2">
  <advance width="640"/>
  <unicode hex="0052"/>
  <outline>
    <contour>
      <point x="40" y="708" type="line"/>
      <point x="358" y="708" type="line" smooth="yes"/>
      <point x="538" y="708"/>
      <point x="612" y="611"/>
      <point x="612" y="470" type="curve" smooth="yes"/>
      <point x="612" y="368"/>
      <point x="571" y="307"/>
      <point x="490" y="272" type="curve"/>
      <point x="644" y="0" type="line"/>
      <point x="436" y="0" type="line"/>
      <point x="264" y="366" type="line"/>
      <point x="341" y="366" type="line" smooth="yes"/>
      <point x="390" y="366"/>
      <point x="420" y="401"/>
      <point x="420" y="459" type="curve" smooth="yes"/>
      <point x="420" y="511"/>
      <point x="394" y="550"/>
      <point x="337" y="550" type="curve" smooth="yes"/>
      <point x="230" y="550" type="line"/>
      <point x="230" y="0" type="line"/>
      <point x="40" y="0" type="line"/>
    </contour>
  </outline>
</glyph>
<glyph name="S" format="2">
  <advance width="600"/>
  <unicode hex="0053"/>
  <outline>
    <contour>
      <point x="332" y="716" type="curve" smooth="yes"/>
      <point x="421" y="716"/>
      <point x="483" y="702"/>
      <point x="567" y="657" type="curve"/>
      <point x="511" y="520" type="line"/>
      <point x="472" y="537"/>
      <point x="417" y="565"/>
      <point x="344" y="565" type="curve" smooth="yes"/>
      <point x="265" y="565"/>
      <point x="244" y="543"/>
      <point x="244" y="503" type="curve" smooth="yes"/>
      <point x="244" y="466"/>
      <point x="271" y="449"/>
      <point x="318" y="434" type="curve" smooth="yes"/>
      <point x="383" y="413" type="line" smooth="yes"/>
      <point x="508" y="372"/>
      <point x="576" y="318"/>
      <point x="576" y="200" type="curve" smooth="yes"/>
      <point x="576" y="60"/>
      <point x="479" y="-8"/>
      <point x="286" y="-8" type="curve" smooth="yes"/>
      <point x="161" y="-8"/>
      <point x="85" y="14"/>
      <point x="30" y="47" type="curve"/>
      <point x="83" y="187" type="line"/>
      <point x="139" y="157"/>
      <point x="199" y="136"/>
      <point x="282" y="136" type="curve" smooth="yes"/>
      <point x="358" y="136"/>
      <point x="388" y="163"/>
      <point x="388" y="199" type="curve" smooth="yes"/>
      <point x="388" y="233"/>
      <point x="366" y="253"/>
      <point x="310" y="270" type="curve" smooth="yes"/>
      <point x="249" y="289" type="line" smooth="yes"/>
      <point x="122" y="329"/>
      <point x="52" y="374"/>
      <point x="52" y="505" type="curve" smooth="yes"/>
      <point x="52" y="636"/>
      <point x="157" y="716"/>
    </contour>
  </outline>
</glyph>
<glyph name="U" format="2">
  <advance width="640"/>
  <unicode hex="0055"/>
  <anchor x="311" y="880" name="AccentCenter"/>
  <outline>
    <contour>
      <point x="48" y="708" type="line"/>
      <point x="240" y="708" type="line"/>
      <point x="240" y="246" type="line"/>
      <point x="240" y="181"/>
      <point x="272" y="153"/>
      <point x="320" y="153" type="curve" smooth="yes"/>
      <point x="369" y="153"/>
      <point x="400" y="181"/>
      <point x="400" y="246" type="curve"/>
      <point x="400" y="708" type="line"/>
      <point x="592" y="708" type="line"/>
      <point x="592" y="251" type="line"/>
      <point x="591" y="50"/>
      <point x="472" y="-7"/>
      <point x="320" y="-7" type="curve" smooth="yes"/>
      <point x="155" y="-7"/>
      <point x="48" y="50"/>
      <point x="48" y="253" type="curve"/>
    </contour>
  </outline>
</glyph>
<glyph name="V" format="2">
  <advance width="600"/>
  <unicode hex="0056"/>
  <outline>
    <contour>
      <point x="0" y="708" type="line"/>
      <point x="184" y="708" type="line"/>
      <point x="299" y="245" type="line"/>
      <point x="417" y="708" type="line"/>
      <point x="600" y="708" type="line"/>
      <point x="405" y="0" type="line"/>
      <point x="194" y="0" type="line"/>
    </contour>
  </outline>
</glyph>
<glyph name="W" format="2">
  <advance width="640"/>
  <unicode hex="0057"/>
  <outline>
    <contour>
      <point x="0" y="708" type="line"/>
      <point x="170" y="708" type="line"/>
      <point x="191" y="250" type="line"/>
      <point x="259" y="552" type="line"/>
      <point x="388" y="552" type="line"/>
      <point x="450" y="257" type="line"/>
      <point x="470" y="708" type="line"/>
      <point x="640" y="708" type="line"/>
      <point x="572" y="0" type="line"/>
      <point x="372" y="0" type="line"/>
      <point x="322" y="343" type="line"/>
      <point x="277" y="0" type="line"/>
      <point x="77" y="0" type="line"/>
    </contour>
  </outline>
</glyph>
<glyph name="X" format="2">
  <advance width="640"/>
  <unicode hex="0058"/>
  <outline>
    <contour>
      <point x="8" y="708" type="line"/>
      <point x="225" y="708" type="line"/>
      <point x="319" y="473" type="line"/>
      <point x="414" y="708" type="line"/>
      <point x="632" y="708" type="line"/>
      <point x="424" y="354" type="line"/>
      <point x="632" y="0" type="line"/>
      <point x="414" y="0" type="line"/>
      <point x="319" y="236" type="line"/>
      <point x="225" y="0" type="line"/>
      <point x="8" y="0" type="line"/>
      <point x="209" y="354" type="line"/>
    </contour>
  </outline>
</glyph>
<glyph name="Y" format="2">
  <advance width="640"/>
  <unicode hex="0059"/>
  <anchor x="326" y="880" name="AccentCenter"/>
  <outline>
    <contour>
      <point x="8" y="708" type="line"/>
      <point x="216" y="708" type="line"/>
      <point x="321" y="358" type="line"/>
      <point x="422" y="708" type="line"/>
      <point x="632" y="708" type="line"/>
      <point x="427" y="270" type="line"/>
      <point x="427" y="0" type="line"/>
      <point x="214" y="0" type="line"/>
      <point x="214" y="269" type="line"/>
    </contour>
  </outline>
</glyph>
<glyph name="Z" format="2">
  <advance width="640"/>
  <unicode hex="005A"/>
  <outline>
    <contour>
      <point x="40" y="708" type="line"/>
      <point x="600" y="708" type="line"/>
      <point x="600" y="580" type="line"/>
      <point x="273" y="160" type="line"/>
      <point x="600" y="160" type="line"/>
      <point x="600" y="0" type="line"/>
      <point x="40" y="0" type="line"/>
      <point x="40" y="128" type="line"/>
      <point x="371" y="548" type="line"/>
      <point x="40" y="548" type="line"/>
    </contour>
  </outline>
</glyph>
<glyph name="bracketleft" format="2">
  <advance width="600"/>
  <unicode hex="005B"/>
  <outline>
    <contour>
      <point x="96" y="800" type="line"/>
      <point x="512" y="800" type="line"/>
      <point x="512" y="656" type="line"/>
      <point x="256" y="656" type="line"/>
      <point x="256" y="80" type="line"/>
      <point x="512" y="80" type="line"/>
      <point x="512" y="-64" type="line"/>
      <point x="96" y="-64" type="line"/>
    </contour>
  </outline>
</glyph>
<glyph name="backslash" format="2">
  <advance width="600"/>
  <unicode hex="005C"/>
  <outline>
    <contour>
      <point x="44" y="772" type="line"/>
      <point x="213" y="772" type="line"/>
      <point x="556" y="-34" type="line"/>
      <point x="387" y="-34" type="line"/>
    </contour>
  </outline>
</glyph>
<glyph name="bracketright" format="2">
  <advance width="640"/>
  <unicode hex="005D"/>
  <outline>
    <contour>
      <point x="128" y="800" type="line"/>
      <point x="544" y="800" type="line"/>
      <point x="544" y="-64" type="line"/>
      <point x="128" y="-64" type="line"/>
      <point x="128" y="80" type="line"/>
      <point x="384" y="80" type="line"/>
      <point x="384" y="656" type="line"/>
      <point x="128" y="656" type="line"/>
    </contour>
  </outline>
</glyph>
<glyph name="underscore" format="2">
  <advance width="600"/>
  <unicode hex="005F"/>
  <outline>
    <contour>
      <point x="40" y="0" type="line"/>
      <point x="572" y="1" type="line"/>
      <point x="572" y="-138" type="line"/>
      <point x="40" y="-139" type="line"/>
    </contour>
  </outline>
</glyph>
<glyph name="a" format="2">
  <advance width="600"/>
  <unicode hex="0061"/>
  <anchor x="283" y="687" name="AccentCenter"/>
  <anchor x="281" y="687" name="Ring"/>
  <outline>
    <contour>
      <point x="260" y="528" type="curve" smooth="yes"/>
      <point x="428" y="528"/>
      <point x="499" y="452"/>
      <point x="499" y="307" type="curve" smooth="yes"/>
      <point x="499" y="130" type="line" smooth="yes"/>
      <point x="499" y="130"/>
      <point x="570" y="130"/>
      <point x="570" y="130" type="curve"/>
      <point x="570" y="0" type="line"/>
      <point x="570" y="0"/>
      <point x="313" y="0"/>
      <point x="313" y="0" type="curve" smooth="yes"/>
      <point x="313" y="0"/>
      <point x="313" y="70"/>
      <point x="313" y="70" type="curve"/>
      <point x="296" y="39"/>
      <point x="249" y="-8"/>
      <point x="176" y="-8" type="curve" smooth="yes"/>
      <point x="70" y="-8"/>
      <point x="27" y="56"/>
      <point x="27" y="147" type="curve" smooth="yes"/>
      <point x="27" y="246"/>
      <point x="96" y="315"/>
      <point x="247" y="315" type="curve" smooth="yes"/>
      <point x="313" y="315" type="line"/>
      <point x="313" y="325" type="line" smooth="yes"/>
      <point x="313" y="371"/>
      <point x="285" y="399"/>
      <point x="219" y="399" type="curve" smooth="yes"/>
      <point x="163" y="399"/>
      <point x="118" y="385"/>
      <point x="92" y="375" type="curve"/>
      <point x="58" y="497" type="line"/>
      <point x="115" y="518"/>
      <point x="174" y="528"/>
    </contour>
    <contour>
      <point x="313" y="204" type="line"/>
      <point x="281" y="204" type="line" smooth="yes"/>
      <point x="236" y="204"/>
      <point x="219" y="190"/>
      <point x="219" y="161" type="curve" smooth="yes"/>
      <point x="219" y="134"/>
      <point x="233" y="117"/>
      <point x="261" y="117" type="curve" smooth="yes"/>
      <point x="291" y="117"/>
      <point x="300" y="130"/>
      <point x="313" y="148" type="curve"/>
    </contour>
  </outline>
</glyph>
<glyph name="b" format="2">
  <advance width="612"/>
  <unicode hex="0062"/>
  <outline>
    <contour>
      <point x="48" y="724" type="line"/>
      <point x="236" y="724" type="line"/>
      <point x="236" y="468" type="line"/>
      <point x="240" y="474"/>
      <point x="273" y="528"/>
      <point x="370" y="528" type="curve" smooth="yes"/>
      <point x="509" y="528"/>
      <point x="592" y="431"/>
      <point x="592" y="267" type="curve" smooth="yes"/>
      <point x="592" y="79"/>
      <point x="495" y="-8"/>
      <point x="368" y="-8" type="curve" smooth="yes"/>
      <point x="302" y="-8"/>
      <point x="260" y="19"/>
      <point x="236" y="65" type="curve"/>
      <point x="198" y="0" type="line"/>
      <point x="48" y="0" type="line"/>
    </contour>
    <contour>
      <point x="315" y="393" type="curve" smooth="yes"/>
      <point x="281" y="393"/>
      <point x="254" y="367"/>
      <point x="236" y="335" type="curve"/>
      <point x="236" y="187" type="line"/>
      <point x="256" y="152"/>
      <point x="284" y="131"/>
      <point x="319" y="131" type="curve" smooth="yes"/>
      <point x="373" y="131"/>
      <point x="400" y="176"/>
      <point x="400" y="264" type="curve" smooth="yes"/>
      <point x="400" y="348"/>
      <point x="374" y="393"/>
    </contour>
  </outline>
</glyph>
<glyph name="c" format="2">
  <advance width="600"/>
  <unicode hex="0063"/>
  <outline>
    <contour>
      <point x="343" y="528" type="curve" smooth="yes"/>
      <point x="447" y="528"/>
      <point x="504" y="492"/>
      <point x="552" y="457" type="curve"/>
      <point x="481" y="341" type="line"/>
      <point x="465" y="352"/>
      <point x="438" y="381"/>
      <point x="370" y="381" type="curve" smooth="yes"/>
      <point x="294" y="381"/>
      <point x="239" y="342"/>
      <point x="239" y="266" type="curve" smooth="yes"/>
      <point x="239" y="261"/>
      <point x="239" y="260"/>
      <point x="239" y="256" type="curve" smooth="yes"/>
      <point x="239" y="181"/>
      <point x="291" y="140"/>
      <point x="367" y="140" type="curve" smooth="yes"/>
      <point x="422" y="140"/>
      <point x="462" y="165"/>
      <point x="490" y="186" type="curve"/>
      <point x="560" y="71" type="line"/>
      <point x="502" y="23"/>
      <point x="432" y="-8"/>
      <point x="339" y="-8" type="curve" smooth="yes"/>
      <point x="148" y="-8"/>
      <point x="46" y="89"/>
      <point x="46" y="255" type="curve" smooth="yes"/>
      <point x="46" y="260"/>
      <point x="46" y="261"/>
      <point x="46" y="267" type="curve" smooth="yes"/>
      <point x="46" y="427"/>
      <point x="147" y="528"/>
    </contour>
  </outline>
</glyph>
<glyph name="d" format="2">
  <advance width="612"/>
  <unicode hex="0064"/>
  <outline>
    <contour>
      <point x="376" y="724" type="line"/>
      <point x="564" y="724" type="line"/>
      <point x="564" y="0" type="line"/>
      <point x="414" y="0" type="line"/>
      <point x="376" y="65" type="line"/>
      <point x="352" y="19"/>
      <point x="311" y="-8"/>
      <point x="246" y="-8" type="curve" smooth="yes"/>
      <point x="121" y="-8"/>
      <point x="24" y="79"/>
      <point x="24" y="267" type="curve" smooth="yes"/>
      <point x="24" y="431"/>
      <point x="107" y="528"/>
      <point x="244" y="528" type="curve" smooth="yes"/>
      <point x="340" y="528"/>
      <point x="372" y="474"/>
      <point x="376" y="468" type="curve"/>
    </contour>
    <contour>
      <point x="298" y="393" type="curve" smooth="yes"/>
      <point x="240" y="393"/>
      <point x="216" y="348"/>
      <point x="216" y="264" type="curve" smooth="yes"/>
      <point x="216" y="176"/>
      <point x="241" y="131"/>
      <point x="295" y="131" type="curve" smooth="yes"/>
      <point x="329" y="131"/>
      <point x="357" y="152"/>
      <point x="376" y="187" type="curve"/>
      <point x="376" y="335" type="line"/>
      <point x="358" y="367"/>
      <point x="332" y="393"/>
    </contour>
  </outline>
</glyph>
<glyph name="e" format="2">
  <advance width="600"/>
  <unicode hex="0065"/>
  <anchor x="316" y="687" name="AccentCenter"/>
  <outline>
    <contour>
      <point x="308" y="528" type="curve" smooth="yes"/>
      <point x="457" y="528"/>
      <point x="546" y="446"/>
      <point x="548" y="294" type="curve" smooth="yes"/>
      <point x="548" y="289"/>
      <point x="548" y="288"/>
      <point x="548" y="280" type="curve" smooth="yes"/>
      <point x="548" y="259"/>
      <point x="544" y="229"/>
      <point x="538" y="212" type="curve"/>
      <point x="236" y="212" type="line"/>
      <point x="236" y="211"/>
      <point x="236" y="210"/>
      <point x="236" y="210" type="curve" smooth="yes"/>
      <point x="236" y="165"/>
      <point x="273" y="124"/>
      <point x="355" y="124" type="curve" smooth="yes"/>
      <point x="429" y="124"/>
      <point x="482" y="159"/>
      <point x="504" y="171" type="curve"/>
      <point x="550" y="54" type="line"/>
      <point x="489" y="19"/>
      <point x="438" y="-8"/>
      <point x="319" y="-8" type="curve" smooth="yes"/>
      <point x="150" y="-8"/>
      <point x="48" y="95"/>
      <point x="48" y="257" type="curve" smooth="yes"/>
      <point x="48" y="263"/>
      <point x="48" y="264"/>
      <point x="48" y="271" type="curve" smooth="yes"/>
      <point x="50" y="441"/>
      <point x="145" y="528"/>
    </contour>
    <contour>
      <point x="305" y="399" type="curve" smooth="yes"/>
      <point x="256" y="399"/>
      <point x="237" y="369"/>
      <point x="236" y="314" type="curve" smooth="yes"/>
      <point x="236" y="312"/>
      <point x="236" y="311"/>
      <point x="236" y="310" type="curve"/>
      <point x="373" y="310" type="line"/>
      <point x="373" y="315" type="line" smooth="yes"/>
      <point x="373" y="371"/>
      <point x="354" y="399"/>
    </contour>
  </outline>
</glyph>
<glyph name="f" format="2">
  <advance width="600"/>
  <unicode hex="0066"/>
  <outline>
    <contour>
      <point x="423" y="780" type="curve" smooth="yes"/>
      <point x="477" y="780"/>
      <point x="532" y="768"/>
      <point x="574" y="752" type="curve"/>
      <point x="541" y="630" type="line"/>
      <point x="520" y="637"/>
      <point x="488" y="645"/>
      <point x="455" y="645" type="curve" smooth="yes"/>
      <point x="410" y="645"/>
      <point x="375" y="619"/>
      <point x="375" y="575" type="curve" smooth="yes"/>
      <point x="375" y="520" type="line"/>
      <point x="560" y="520" type="line"/>
      <point x="560" y="370" type="line"/>
      <point x="375" y="370" type="line"/>
      <point x="375" y="0" type="line"/>
      <point x="183" y="0" type="line"/>
      <point x="183" y="370" type="line"/>
      <point x="40" y="370" type="line"/>
      <point x="40" y="520" type="line"/>
      <point x="183" y="520" type="line"/>
      <point x="183" y="581" type="line" smooth="yes"/>
      <point x="183" y="701"/>
      <point x="261" y="780"/>
    </contour>
  </outline>
</glyph>
<glyph name="g" format="2">
  <advance width="640"/>
  <unicode hex="0067"/>
  <outline>
    <contour>
      <point x="255" y="412" type="curve" smooth="yes"/>
      <point x="212" y="412"/>
      <point x="194" y="394"/>
      <point x="194" y="357" type="curve" smooth="yes"/>
      <point x="194" y="325"/>
      <point x="213" y="305"/>
      <point x="255" y="305" type="curve" smooth="yes"/>
      <point x="300" y="305"/>
      <point x="319" y="325"/>
      <point x="319" y="355" type="curve" smooth="yes"/>
      <point x="319" y="392"/>
      <point x="300" y="412"/>
    </contour>
    <contour>
      <point x="254" y="528" type="curve" smooth="yes"/>
      <point x="342" y="528"/>
      <point x="401" y="510"/>
      <point x="438" y="479" type="curve"/>
      <point x="463" y="504"/>
      <point x="500" y="520"/>
      <point x="547" y="520" type="curve" smooth="yes"/>
      <point x="579" y="520" type="line"/>
      <point x="579" y="379" type="line"/>
      <point x="488" y="379" type="line"/>
      <point x="489" y="371"/>
      <point x="489" y="363"/>
      <point x="489" y="355" type="curve" smooth="yes"/>
      <point x="489" y="252"/>
      <point x="419" y="203"/>
      <point x="289" y="191" type="curve" smooth="yes"/>
      <point x="207" y="183"/>
      <point x="192" y="177"/>
      <point x="192" y="161" type="curve" smooth="yes"/>
      <point x="192" y="148"/>
      <point x="206" y="140"/>
      <point x="232" y="140" type="curve" smooth="yes"/>
      <point x="403" y="140" type="line" smooth="yes"/>
      <point x="513" y="140"/>
      <point x="578" y="85"/>
      <point x="578" y="-2" type="curve" smooth="yes"/>
      <point x="578" y="-136"/>
      <point x="493" y="-192"/>
      <point x="290" y="-192" type="curve" smooth="yes"/>
      <point x="142" y="-192"/>
      <point x="19" y="-145"/>
      <point x="-20" y="-125" type="curve"/>
      <point x="29" y="-15" type="line"/>
      <point x="54" y="-26"/>
      <point x="163" y="-65"/>
      <point x="284" y="-65" type="curve" smooth="yes"/>
      <point x="385" y="-65"/>
      <point x="411" y="-52"/>
      <point x="411" y="-26" type="curve" smooth="yes"/>
      <point x="411" y="-10"/>
      <point x="396" y="0"/>
      <point x="377" y="0" type="curve" smooth="yes"/>
      <point x="205" y="0" type="line" smooth="yes"/>
      <point x="88" y="0"/>
      <point x="41" y="37"/>
      <point x="41" y="114" type="curve" smooth="yes"/>
      <point x="41" y="160"/>
      <point x="67" y="193"/>
      <point x="136" y="208" type="curve"/>
      <point x="61" y="228"/>
      <point x="24" y="287"/>
      <point x="24" y="353" type="curve" smooth="yes"/>
      <point x="24" y="462"/>
      <point x="92" y="528"/>
    </contour>
  </outline>
</glyph>
<glyph name="h" format="2">
  <advance width="640"/>
  <unicode hex="0068"/>
  <outline>
    <contour>
      <point x="40" y="708" type="line"/>
      <point x="232" y="708" type="line"/>
      <point x="232" y="448" type="line"/>
      <point x="258" y="501"/>
      <point x="323" y="528"/>
      <point x="408" y="528" type="curve" smooth="yes"/>
      <point x="528" y="528"/>
      <point x="600" y="469"/>
      <point x="600" y="329" type="curve" smooth="yes"/>
      <point x="600" y="0" type="line"/>
      <point x="408" y="0" type="line"/>
      <point x="408" y="286" type="line" smooth="yes"/>
      <point x="408" y="345"/>
      <point x="389" y="370"/>
      <point x="331" y="370" type="curve" smooth="yes"/>
      <point x="282" y="370"/>
      <point x="251" y="342"/>
      <point x="232" y="316" type="curve"/>
      <point x="232" y="0" type="line"/>
      <point x="40" y="0" type="line"/>
    </contour>
  </outline>
</glyph>
<glyph name="i" format="2">
  <advance width="600"/>
  <unicode hex="0069"/>
  <outline>
    <contour>
      <point x="294" y="743" type="curve" smooth="yes"/>
      <point x="347" y="743"/>
      <point x="391" y="708"/>
      <point x="391" y="646" type="curve" smooth="yes"/>
      <point x="391" y="588"/>
      <point x="347" y="549"/>
      <point x="294" y="549" type="curve" smooth="yes"/>
      <point x="241" y="549"/>
      <point x="197" y="588"/>
      <point x="197" y="646" type="curve" smooth="yes"/>
      <point x="197" y="708"/>
      <point x="241" y="743"/>
    </contour>
    <component base="dotlessi" xOffset="6"/>
  </outline>
</glyph>
<glyph name="j" format="2">
  <advance width="640"/>
  <unicode hex="006A"/>
  <outline>
    <contour>
      <point x="442" y="743" type="curve" smooth="yes"/>
      <point x="498" y="743"/>
      <point x="540" y="709"/>
      <point x="540" y="646" type="curve" smooth="yes"/>
      <point x="540" y="588"/>
      <point x="498" y="549"/>
      <point x="442" y="549" type="curve" smooth="yes"/>
      <point x="391" y="549"/>
      <point x="346" y="583"/>
      <point x="346" y="646" type="curve" smooth="yes"/>
      <point x="346" y="709"/>
      <point x="391" y="743"/>
    </contour>
    <contour>
      <point x="127" y="520" type="line"/>
      <point x="536" y="520" type="line"/>
      <point x="536" y="71" type="line" smooth="yes"/>
      <point x="536" y="-100"/>
      <point x="408" y="-192"/>
      <point x="249" y="-192" type="curve" smooth="yes"/>
      <point x="121" y="-192"/>
      <point x="64" y="-159"/>
      <point x="16" y="-124" type="curve"/>
      <point x="102" y="18" type="line"/>
      <point x="143" y="-10"/>
      <point x="182" y="-32"/>
      <point x="243" y="-32" type="curve" smooth="yes"/>
      <point x="314" y="-32"/>
      <point x="344" y="3"/>
      <point x="344" y="71" type="curve" smooth="yes"/>
      <point x="344" y="360" type="line"/>
      <point x="127" y="360" type="line"/>
    </contour>
  </outline>
</glyph>
<glyph name="l" format="2">
  <advance width="600"/>
  <unicode hex="006C"/>
  <outline>
    <contour>
      <point x="26" y="724" type="line"/>
      <point x="387" y="724" type="line"/>
      <point x="387" y="150" type="line"/>
      <point x="571" y="150" type="line"/>
      <point x="571" y="0" type="line"/>
      <point x="195" y="0" type="line"/>
      <point x="195" y="574" type="line"/>
      <point x="26" y="574" type="line"/>
    </contour>
  </outline>
</glyph>
<glyph name="m" format="2">
  <advance width="600"/>
  <unicode hex="006D"/>
  <outline>
    <contour>
      <point x="18" y="520" type="line"/>
      <point x="107" y="520" type="line"/>
      <point x="151" y="448" type="line"/>
      <point x="173" y="499"/>
      <point x="203" y="528"/>
      <point x="267" y="528" type="curve" smooth="yes"/>
      <point x="315" y="528"/>
      <point x="347" y="495"/>
      <point x="350" y="445" type="curve"/>
      <point x="372" y="502"/>
      <point x="411" y="528"/>
      <point x="470" y="528" type="curve" smooth="yes"/>
      <point x="541" y="528"/>
      <point x="582" y="493"/>
      <point x="582" y="407" type="curve" smooth="yes"/>
      <point x="582" y="0" type="line"/>
      <point x="438" y="0" type="line"/>
      <point x="438" y="363" type="line" smooth="yes"/>
      <point x="438" y="382"/>
      <point x="431" y="394"/>
      <point x="410" y="394" type="curve" smooth="yes"/>
      <point x="397" y="394"/>
      <point x="380" y="386"/>
      <point x="372" y="370" type="curve"/>
      <point x="372" y="0" type="line"/>
      <point x="234" y="0" type="line"/>
      <point x="234" y="363" type="line" smooth="yes"/>
      <point x="234" y="381"/>
      <point x="224" y="394"/>
      <point x="206" y="394" type="curve" smooth="yes"/>
      <point x="192" y="394"/>
      <point x="174" y="386"/>
      <point x="165" y="370" type="curve"/>
      <point x="165" y="0" type="line"/>
      <point x="18" y="0" type="line"/>
    </contour>
  </outline>
</glyph>
<glyph name="n" format="2">
  <advance width="600"/>
  <unicode hex="006E"/>
  <anchor x="346" y="687" name="AccentCenter"/>
  <outline>
    <contour>
      <point x="48" y="520" type="line"/>
      <point x="198" y="520" type="line"/>
      <point x="240" y="424" type="line"/>
      <point x="268" y="481"/>
      <point x="317" y="528"/>
      <point x="411" y="528" type="curve" smooth="yes"/>
      <point x="513" y="528"/>
      <point x="568" y="459"/>
      <point x="568" y="336" type="curve" smooth="yes"/>
      <point x="568" y="0" type="line"/>
      <point x="376" y="0" type="line"/>
      <point x="376" y="296" type="line" smooth="yes"/>
      <point x="376" y="357"/>
      <point x="360" y="379"/>
      <point x="317" y="379" type="curve" smooth="yes"/>
      <point x="267" y="379"/>
      <point x="251" y="332"/>
      <point x="240" y="304" type="curve"/>
      <point x="240" y="0" type="line"/>
      <point x="48" y="0" type="line"/>
    </contour>
  </outline>
</glyph>
<glyph name="o" format="2">
  <advance width="600"/>
  <unicode hex="006F"/>
  <anchor x="328" y="686" name="AccentCenter"/>
  <outline>
    <contour>
      <point x="300" y="387" type="curve" smooth="yes"/>
      <point x="238" y="387"/>
      <point x="216" y="349"/>
      <point x="216" y="254" type="curve" smooth="yes"/>
      <point x="216" y="167"/>
      <point x="237" y="134"/>
      <point x="300" y="134" type="curve" smooth="yes"/>
      <point x="360" y="134"/>
      <point x="384" y="170"/>
      <point x="384" y="258" type="curve" smooth="yes"/>
      <point x="384" y="347"/>
      <point x="360" y="387"/>
    </contour>
    <contour>
      <point x="300" y="528" type="curve" smooth="yes"/>
      <point x="470" y="528"/>
      <point x="576" y="428"/>
      <point x="576" y="261" type="curve" smooth="yes"/>
      <point x="576" y="93"/>
      <point x="468" y="-8"/>
      <point x="300" y="-8" type="curve" smooth="yes"/>
      <point x="137" y="-8"/>
      <point x="24" y="91"/>
      <point x="24" y="259" type="curve" smooth="yes"/>
      <point x="24" y="431"/>
      <point x="132" y="528"/>
    </contour>
  </outline>
</glyph>
<glyph name="p" format="2">
  <advance width="612"/>
  <unicode hex="0070"/>
  <outline>
    <contour>
      <point x="312" y="388" type="curve" smooth="yes"/>
      <point x="273" y="388"/>
      <point x="246" y="366"/>
      <point x="228" y="330" type="curve"/>
      <point x="228" y="189" type="line"/>
      <point x="247" y="151"/>
      <point x="274" y="128"/>
      <point x="308" y="128" type="curve" smooth="yes"/>
      <point x="372" y="128"/>
      <point x="400" y="172"/>
      <point x="400" y="260" type="curve" smooth="yes"/>
      <point x="400" y="341"/>
      <point x="371" y="388"/>
    </contour>
    <contour>
      <point x="40" y="520" type="line"/>
      <point x="190" y="520" type="line"/>
      <point x="228" y="460" type="line"/>
      <point x="256" y="504"/>
      <point x="317" y="527"/>
      <point x="379" y="527" type="curve" smooth="yes"/>
      <point x="518" y="527"/>
      <point x="592" y="434"/>
      <point x="592" y="259" type="curve" smooth="yes"/>
      <point x="592" y="100"/>
      <point x="514" y="-8"/>
      <point x="378" y="-8" type="curve" smooth="yes"/>
      <point x="310" y="-8"/>
      <point x="260" y="10"/>
      <point x="228" y="51" type="curve"/>
      <point x="228" y="-192" type="line"/>
      <point x="40" y="-192" type="line"/>
    </contour>
  </outline>
</glyph>
<glyph name="q" format="2">
  <advance width="600"/>
  <unicode hex="0071"/>
  <outline>
    <contour>
      <point x="296" y="388" type="curve" smooth="yes"/>
      <point x="238" y="388"/>
      <point x="216" y="339"/>
      <point x="216" y="256" type="curve" smooth="yes"/>
      <point x="216" y="172"/>
      <point x="237" y="128"/>
      <point x="300" y="128" type="curve" smooth="yes"/>
      <point x="336" y="128"/>
      <point x="357" y="151"/>
      <point x="376" y="187" type="curve"/>
      <point x="376" y="332" type="line"/>
      <point x="355" y="368"/>
      <point x="333" y="388"/>
    </contour>
    <contour>
      <point x="414" y="520" type="line"/>
      <point x="564" y="520" type="line"/>
      <point x="564" y="-192" type="line"/>
      <point x="376" y="-192" type="line"/>
      <point x="376" y="53" type="line"/>
      <point x="344" y="12"/>
      <point x="299" y="-8"/>
      <point x="232" y="-8" type="curve" smooth="yes"/>
      <point x="96" y="-8"/>
      <point x="24" y="100"/>
      <point x="24" y="259" type="curve" smooth="yes"/>
      <point x="24" y="419"/>
      <point x="97" y="528"/>
      <point x="234" y="528" type="curve" smooth="yes"/>
      <point x="297" y="528"/>
      <point x="349" y="501"/>
      <point x="376" y="455" type="curve"/>
    </contour>
  </outline>
</glyph>
<glyph name="r" format="2">
  <advance width="600"/>
  <unicode hex="0072"/>
  <outline>
    <contour>
      <point x="213" y="520" type="line"/>
      <point x="255" y="410" type="line"/>
      <point x="274" y="469"/>
      <point x="340" y="528"/>
      <point x="432" y="528" type="curve" smooth="yes"/>
      <point x="468" y="528"/>
      <point x="508" y="523"/>
      <point x="552" y="509" type="curve"/>
      <point x="521" y="360" type="line"/>
      <point x="500" y="360"/>
      <point x="483" y="360"/>
      <point x="447" y="360" type="curve" smooth="yes"/>
      <point x="373" y="360"/>
      <point x="342" y="313"/>
      <point x="330" y="280" type="curve"/>
      <point x="330" y="0" type="line"/>
      <point x="138" y="0" type="line"/>
      <point x="138" y="284" type="line"/>
      <point x="26" y="520" type="line"/>
    </contour>
  </outline>
</glyph>
<glyph name="s" format="2">
  <advance width="600"/>
  <unicode hex="0073"/>
  <outline>
    <contour>
      <point x="319" y="528" type="curve" smooth="yes"/>
      <point x="409" y="528"/>
      <point x="475" y="512"/>
      <point x="538" y="478" type="curve"/>
      <point x="490" y="358" type="line"/>
      <point x="438" y="384"/>
      <point x="386" y="397"/>
      <point x="327" y="397" type="curve" smooth="yes"/>
      <point x="270" y="397"/>
      <point x="246" y="384"/>
      <point x="246" y="363" type="curve" smooth="yes"/>
      <point x="246" y="344"/>
      <point x="259" y="337"/>
      <point x="308" y="327" type="curve" smooth="yes"/>
      <point x="379" y="313" type="line" smooth="yes"/>
      <point x="486" y="293"/>
      <point x="553" y="259"/>
      <point x="553" y="154" type="curve" smooth="yes"/>
      <point x="553" y="45"/>
      <point x="466" y="-8"/>
      <point x="292" y="-8" type="curve" smooth="yes"/>
      <point x="185" y="-8"/>
      <point x="107" y="14"/>
      <point x="60" y="42" type="curve"/>
      <point x="108" y="163" type="line"/>
      <point x="140" y="144"/>
      <point x="225" y="118"/>
      <point x="312" y="118" type="curve" smooth="yes"/>
      <point x="364" y="118"/>
      <point x="381" y="134"/>
      <point x="381" y="154" type="curve" smooth="yes"/>
      <point x="381" y="176"/>
      <point x="350" y="182"/>
      <point x="312" y="189" type="curve" smooth="yes"/>
      <point x="253" y="200" type="line" smooth="yes"/>
      <point x="137" y="221"/>
      <point x="75" y="260"/>
      <point x="74" y="357" type="curve" smooth="yes"/>
      <point x="74" y="460"/>
      <point x="137" y="528"/>
    </contour>
  </outline>
</glyph>
<glyph name="t" format="2">
  <advance width="640"/>
  <unicode hex="0074"/>
  <outline>
    <contour>
      <point x="149" y="614" type="line"/>
      <point x="341" y="687" type="line"/>
      <point x="341" y="520" type="line"/>
      <point x="524" y="520" type="line"/>
      <point x="524" y="383" type="line"/>
      <point x="341" y="383" type="line"/>
      <point x="341" y="194" type="line" smooth="yes"/>
      <point x="341" y="156"/>
      <point x="358" y="138"/>
      <point x="398" y="138" type="curve"/>
      <point x="438" y="138"/>
      <point x="468" y="147"/>
      <point x="492" y="155" type="curve"/>
      <point x="526" y="24" type="line"/>
      <point x="481" y="8"/>
      <point x="427" y="-8"/>
      <point x="363" y="-8" type="curve" smooth="yes"/>
      <point x="222" y="-8"/>
      <point x="149" y="59"/>
      <point x="149" y="206" type="curve" smooth="yes"/>
      <point x="149" y="383" type="line"/>
      <point x="16" y="383" type="line"/>
      <point x="16" y="520" type="line"/>
      <point x="149" y="520" type="line"/>
    </contour>
  </outline>
</glyph>
<glyph name="u" format="2">
  <advance width="600"/>
  <unicode hex="0075"/>
  <anchor x="300" y="687" name="AccentCenter"/>
  <outline>
    <contour>
      <point x="44" y="520" type="line"/>
      <point x="236" y="520" type="line"/>
      <point x="236" y="216" type="line" smooth="yes"/>
      <point x="236" y="159"/>
      <point x="249" y="140"/>
      <point x="295" y="140" type="curve" smooth="yes"/>
      <point x="330" y="140"/>
      <point x="355" y="167"/>
      <point x="368" y="192" type="curve"/>
      <point x="368" y="520" type="line"/>
      <point x="560" y="520" type="line"/>
      <point x="560" y="0" type="line"/>
      <point x="411" y="0" type="line"/>
      <point x="368" y="79" type="line"/>
      <point x="340" y="29"/>
      <point x="295" y="-8"/>
      <point x="225" y="-8" type="curve" smooth="yes"/>
      <point x="106" y="-8"/>
      <point x="38" y="71"/>
      <point x="40" y="202" type="curve" smooth="yes"/>
    </contour>
  </outline>
</glyph>
<glyph name="v" format="2">
  <advance width="600"/>
  <unicode hex="0076"/>
  <outline>
    <contour>
      <point x="12" y="520" type="line"/>
      <point x="193" y="520" type="line"/>
      <point x="309" y="173" type="line"/>
      <point x="419" y="520" type="line"/>
      <point x="600" y="520" type="line"/>
      <point x="410" y="0" type="line"/>
      <point x="207" y="0" type="line"/>
    </contour>
  </outline>
</glyph>
<glyph name="w" format="2">
  <advance width="600"/>
  <unicode hex="0077"/>
  <outline>
    <contour>
      <point x="8" y="520" type="line"/>
      <point x="152" y="520" type="line"/>
      <point x="171" y="155" type="line"/>
      <point x="231" y="462" type="line"/>
      <point x="370" y="462" type="line"/>
      <point x="424" y="159" type="line"/>
      <point x="446" y="520" type="line"/>
      <point x="592" y="520" type="line"/>
      <point x="530" y="0" type="line"/>
      <point x="341" y="0" type="line"/>
      <point x="299" y="321" type="line"/>
      <point x="254" y="0" type="line"/>
      <point x="65" y="0" type="line"/>
    </contour>
  </outline>
</glyph>
<glyph name="x" format="2">
  <advance width="600"/>
  <unicode hex="0078"/>
  <outline>
    <contour>
      <point x="16" y="520" type="line"/>
      <point x="214" y="520" type="line"/>
      <point x="302" y="329" type="line"/>
      <point x="392" y="520" type="line"/>
      <point x="584" y="520" type="line"/>
      <point x="420" y="260" type="line"/>
      <point x="584" y="0" type="line"/>
      <point x="392" y="0" type="line"/>
      <point x="304" y="192" type="line"/>
      <point x="214" y="0" type="line"/>
      <point x="16" y="0" type="line"/>
      <point x="178" y="260" type="line"/>
    </contour>
  </outline>
</glyph>
<glyph name="y" format="2">
  <advance width="600"/>
  <unicode hex="0079"/>
  <anchor x="308" y="687" name="AccentCenter"/>
  <outline>
    <contour>
      <point x="10" y="520" type="line"/>
      <point x="224" y="520" type="line"/>
      <point x="289" y="250" type="line"/>
      <point x="302" y="156" type="line"/>
      <point x="319" y="250" type="line"/>
      <point x="401" y="520" type="line"/>
      <point x="595" y="520" type="line"/>
      <point x="296" y="-191" type="line"/>
      <point x="116" y="-191" type="line"/>
      <point x="211" y="37" type="line"/>
    </contour>
  </outline>
</glyph>
<glyph name="z" format="2">
  <advance width="640"/>
  <unicode hex="007A"/>
  <outline>
    <contour>
      <point x="56" y="520" type="line"/>
      <point x="524" y="520" type="line"/>
      <point x="524" y="410" type="line"/>
      <point x="302" y="142" type="line"/>
      <point x="540" y="142" type="line"/>
      <point x="540" y="0" type="line"/>
      <point x="56" y="0" type="line"/>
      <point x="56" y="110" type="line"/>
      <point x="292" y="378" type="line"/>
      <point x="56" y="378" type="line"/>
    </contour>
  </outline>
</glyph>
<glyph name="braceleft" format="2">
  <advance width="600"/>
  <unicode hex="007B"/>
  <outline>
    <contour>
      <point x="405" y="800" type="curve"/>
      <point x="484" y="800" type="line"/>
      <point x="484" y="656" type="line"/>
      <point x="405" y="656" type="line"/>
      <point x="355" y="656"/>
      <point x="324" y="643"/>
      <point x="316" y="597" type="curve"/>
      <point x="350" y="495" type="line"/>
      <point x="350" y="425"/>
      <point x="303" y="379"/>
      <point x="246" y="365" type="curve"/>
      <point x="303" y="344"/>
      <point x="350" y="294"/>
      <point x="350" y="221" type="curve"/>
      <point x="316" y="120" type="line"/>
      <point x="319" y="81"/>
      <point x="352" y="61"/>
      <point x="405" y="61" type="curve"/>
      <point x="484" y="61" type="line"/>
      <point x="484" y="-83" type="line"/>
      <point x="405" y="-83" type="line"/>
      <point x="245" y="-83"/>
      <point x="165" y="15"/>
      <point x="152" y="112" type="curve"/>
      <point x="194" y="231" type="line"/>
      <point x="187" y="266"/>
      <point x="169" y="289"/>
      <point x="121" y="289" type="curve"/>
      <point x="48" y="289" type="line"/>
      <point x="48" y="438" type="line"/>
      <point x="121" y="438" type="line"/>
      <point x="159" y="438"/>
      <point x="186" y="453"/>
      <point x="194" y="487" type="curve"/>
      <point x="158" y="601" type="line"/>
      <point x="170" y="731"/>
      <point x="281" y="800"/>
    </contour>
  </outline>
</glyph>
<glyph name="braceright" format="2">
  <advance width="600"/>
  <unicode hex="007D"/>
  <outline>
    <contour>
      <point x="195" y="800" type="line"/>
      <point x="319" y="800"/>
      <point x="430" y="731"/>
      <point x="442" y="601" type="curve"/>
      <point x="406" y="487" type="line"/>
      <point x="414" y="453"/>
      <point x="441" y="438"/>
      <point x="479" y="438" type="curve"/>
      <point x="552" y="438" type="line"/>
      <point x="552" y="289" type="line"/>
      <point x="479" y="289" type="line"/>
      <point x="431" y="289"/>
      <point x="413" y="266"/>
      <point x="406" y="231" type="curve"/>
      <point x="448" y="112" type="line"/>
      <point x="435" y="15"/>
      <point x="355" y="-83"/>
      <point x="195" y="-83" type="curve"/>
      <point x="116" y="-83" type="line"/>
      <point x="116" y="61" type="line"/>
      <point x="195" y="61" type="line"/>
      <point x="248" y="61"/>
      <point x="281" y="81"/>
      <point x="284" y="120" type="curve"/>
      <point x="250" y="221" type="line"/>
      <point x="250" y="294"/>
      <point x="297" y="344"/>
      <point x="354" y="365" type="curve"/>
      <point x="297" y="379"/>
      <point x="250" y="425"/>
      <point x="250" y="495" type="curve"/>
      <point x="284" y="597" type="line"/>
      <point x="276" y="643"/>
      <point x="245" y="656"/>
      <point x="195" y="656" type="curve"/>
      <point x="116" y="656" type="line"/>
      <point x="116" y="800" type="line"/>
    </contour>
  </outline>
</glyph>
<glyph name="asciitilde" format="2">
  <advance width="612"/>
  <unicode hex="007E"/>
  <outline>
    <contour>
      <point x="77" y="265" type="line"/>
      <point x="77" y="265"/>
      <point x="117" y="386"/>
      <point x="249" y="386" type="curve" smooth="yes"/>
      <point x="324" y="386"/>
      <point x="368" y="291"/>
      <point x="439" y="291" type="curve" smooth="yes"/>
      <point x="497" y="291"/>
      <point x="525" y="384"/>
      <point x="525" y="384" type="curve"/>
      <point x="585" y="343" type="line"/>
      <point x="585" y="343"/>
      <point x="537" y="225"/>
      <point x="431" y="225" type="curve" smooth="yes"/>
      <point x="348" y="225"/>
      <point x="302" y="321"/>
      <point x="237" y="321" type="curve" smooth="yes"/>
      <point x="162" y="321"/>
      <point x="128" y="225"/>
      <point x="128" y="225" type="curve"/>
    </contour>
  </outline>
</glyph>
<glyph name="cent" format="2">
  <advance width="600"/>
  <unicode hex="00A2"/>
  <outline>
    <contour>
      <point x="295" y="618" type="line"/>
      <point x="407" y="618" type="line"/>
      <point x="407" y="-94" type="line"/>
      <point x="295" y="-94" type="line"/>
    </contour>
    <component base="c"/>
  </outline>
</glyph>
<glyph name="sterling" format="2">
  <advance width="512"/>
  <unicode hex="00A3"/>
  <outline>
    <contour>
      <point x="357" y="716" type="curve" smooth="yes"/>
      <point x="467" y="716"/>
      <point x="538" y="678"/>
      <point x="594" y="636" type="curve"/>
      <point x="513" y="520" type="line"/>
      <point x="466" y="553"/>
      <point x="416" y="572"/>
      <point x="360" y="572" type="curve" smooth="yes"/>
      <point x="303" y="572"/>
      <point x="273" y="544"/>
      <point x="273" y="496" type="curve" smooth="yes"/>
      <point x="273" y="473"/>
      <point x="276" y="454"/>
      <point x="281" y="438" type="curve"/>
      <point x="482" y="438" type="line"/>
      <point x="482" y="285" type="line"/>
      <point x="343" y="285" type="line"/>
      <point x="343" y="280"/>
      <point x="344" y="274"/>
      <point x="344" y="268" type="curve" smooth="yes"/>
      <point x="344" y="223"/>
      <point x="327" y="178"/>
      <point x="282" y="150" type="curve"/>
      <point x="588" y="150" type="line"/>
      <point x="588" y="0" type="line"/>
      <point x="59" y="0" type="line"/>
      <point x="59" y="156" type="line"/>
      <point x="104" y="156"/>
      <point x="168" y="178"/>
      <point x="168" y="267" type="curve" smooth="yes"/>
      <point x="168" y="273"/>
      <point x="168" y="279"/>
      <point x="167" y="285" type="curve"/>
      <point x="33" y="285" type="line"/>
      <point x="33" y="438" type="line"/>
      <point x="108" y="438" type="line"/>
      <point x="101" y="459"/>
      <point x="97" y="483"/>
      <point x="97" y="510" type="curve" smooth="yes"/>
      <point x="97" y="626"/>
      <point x="197" y="716"/>
    </contour>
  </outline>
</glyph>
<glyph name="currency" format="2">
  <advance width="600"/>
  <unicode hex="00A4"/>
  <outline>
    <contour>
      <point x="468" y="220" type="line"/>
      <point x="632" y="56" type="line"/>
      <point x="529" y="-47" type="line"/>
      <point x="365" y="116" type="line"/>
    </contour>
    <contour>
      <point x="235" y="116" type="line"/>
      <point x="71" y="-47" type="line"/>
      <point x="-32" y="56" type="line"/>
      <point x="132" y="219" type="line"/>
    </contour>
    <contour>
      <point x="133" y="302" type="line"/>
      <point x="-31" y="466" type="line"/>
      <point x="71" y="568" type="line"/>
      <point x="235" y="405" type="line"/>
    </contour>
    <contour>
      <point x="364" y="404" type="line"/>
      <point x="529" y="568" type="line"/>
      <point x="632" y="465" type="line"/>
      <point x="467" y="301" type="line"/>
    </contour>
    <contour>
      <point x="300" y="364" type="curve" smooth="yes"/>
      <point x="239" y="364"/>
      <point x="200" y="318"/>
      <point x="200" y="259" type="curve" smooth="yes"/>
      <point x="200" y="200"/>
      <point x="238" y="155"/>
      <point x="300" y="155" type="curve" smooth="yes"/>
      <point x="361" y="155"/>
      <point x="401" y="200"/>
      <point x="401" y="259" type="curve" smooth="yes"/>
      <point x="401" y="318"/>
      <point x="361" y="364"/>
    </contour>
    <contour>
      <point x="300" y="6" type="curve" smooth="yes"/>
      <point x="162" y="6"/>
      <point x="52" y="120"/>
      <point x="52" y="260" type="curve" smooth="yes"/>
      <point x="52" y="400"/>
      <point x="162" y="513"/>
      <point x="300" y="513" type="curve" smooth="yes"/>
      <point x="438" y="513"/>
      <point x="548" y="400"/>
      <point x="548" y="260" type="curve" smooth="yes"/>
      <point x="548" y="120"/>
      <point x="438" y="6"/>
    </contour>
  </outline>
</glyph>
<glyph name="section" format="2">
  <advance width="576"/>
  <unicode hex="00A7"/>
  <outline>
    <contour>
      <point x="344" y="768" type="curve" smooth="yes"/>
      <point x="425" y="768"/>
      <point x="531" y="736"/>
      <point x="591" y="694" type="curve"/>
      <point x="525" y="572" type="line"/>
      <point x="476" y="602"/>
      <point x="409" y="623"/>
      <point x="360" y="623" type="curve" smooth="yes"/>
      <point x="281" y="623"/>
      <point x="248" y="605"/>
      <point x="248" y="561" type="curve" smooth="yes"/>
      <point x="248" y="516"/>
      <point x="263" y="506"/>
      <point x="354" y="486" type="curve"/>
      <point x="402" y="474" type="line" smooth="yes"/>
      <point x="525" y="444"/>
      <point x="588" y="381"/>
      <point x="588" y="267" type="curve" smooth="yes"/>
      <point x="588" y="205"/>
      <point x="561" y="147"/>
      <point x="514" y="108" type="curve"/>
      <point x="538" y="82"/>
      <point x="548" y="51"/>
      <point x="548" y="6" type="curve" smooth="yes"/>
      <point x="548" y="-122"/>
      <point x="447" y="-191"/>
      <point x="260" y="-191" type="curve" smooth="yes"/>
      <point x="188" y="-191"/>
      <point x="84" y="-164"/>
      <point x="17" y="-129" type="curve"/>
      <point x="78" y="-2" type="line"/>
      <point x="118" y="-29"/>
      <point x="199" y="-51"/>
      <point x="256" y="-51" type="curve" smooth="yes"/>
      <point x="341" y="-51"/>
      <point x="374" y="-32"/>
      <point x="374" y="18" type="curve" smooth="yes"/>
      <point x="374" y="62"/>
      <point x="347" y="87"/>
      <point x="288" y="99" type="curve" smooth="yes"/>
      <point x="189" y="119" type="line" smooth="yes"/>
      <point x="74" y="145"/>
      <point x="28" y="199"/>
      <point x="28" y="308" type="curve" smooth="yes"/>
      <point x="28" y="366"/>
      <point x="59" y="432"/>
      <point x="101" y="464" type="curve"/>
      <point x="80" y="487"/>
      <point x="68" y="530"/>
      <point x="68" y="580" type="curve" smooth="yes"/>
      <point x="68" y="692"/>
      <point x="179" y="768"/>
    </contour>
    <contour>
      <point x="202" y="389" type="curve"/>
      <point x="190" y="379"/>
      <point x="180" y="356"/>
      <point x="180" y="330" type="curve" smooth="yes"/>
      <point x="180" y="281"/>
      <point x="201" y="258"/>
      <point x="259" y="246" type="curve" smooth="yes"/>
      <point x="347" y="227" type="line" smooth="yes"/>
      <point x="379" y="220"/>
      <point x="397" y="212"/>
      <point x="413" y="199" type="curve"/>
      <point x="428" y="209"/>
      <point x="436" y="229"/>
      <point x="436" y="251" type="curve" smooth="yes"/>
      <point x="436" y="299"/>
      <point x="405" y="328"/>
      <point x="352" y="340" type="curve" smooth="yes"/>
      <point x="257" y="362" type="line" smooth="yes"/>
      <point x="234" y="367"/>
      <point x="214" y="375"/>
    </contour>
  </outline>
</glyph>
<glyph name="copyright" format="2">
  <advance width="600"/>
  <unicode hex="00A9"/>
  <outline>
    <contour>
      <point x="301" y="516" type="curve" smooth="yes"/>
      <point x="346" y="516"/>
      <point x="373" y="509"/>
      <point x="412" y="474" type="curve"/>
      <point x="386" y="436" type="line"/>
      <point x="358" y="462"/>
      <point x="338" y="469"/>
      <point x="303" y="469" type="curve" smooth="yes"/>
      <point x="244" y="469"/>
      <point x="217" y="432"/>
      <point x="217" y="355" type="curve" smooth="yes"/>
      <point x="217" y="278"/>
      <point x="244" y="244"/>
      <point x="302" y="244" type="curve" smooth="yes"/>
      <point x="342" y="244"/>
      <point x="364" y="251"/>
      <point x="388" y="278" type="curve"/>
      <point x="414" y="241" type="line"/>
      <point x="383" y="209"/>
      <point x="348" y="197"/>
      <point x="299" y="197" type="curve" smooth="yes"/>
      <point x="214" y="197"/>
      <point x="159" y="256"/>
      <point x="159" y="355" type="curve" smooth="yes"/>
      <point x="159" y="457"/>
      <point x="212" y="516"/>
    </contour>
    <contour>
      <point x="516" y="357" type="curve" smooth="yes"/>
      <point x="516" y="238"/>
      <point x="419" y="141"/>
      <point x="300" y="141" type="curve" smooth="yes"/>
      <point x="181" y="141"/>
      <point x="84" y="238"/>
      <point x="84" y="357" type="curve" smooth="yes"/>
      <point x="84" y="476"/>
      <point x="181" y="573"/>
      <point x="300" y="573" type="curve" smooth="yes"/>
      <point x="419" y="573"/>
      <point x="516" y="476"/>
    </contour>
    <contour>
      <point x="565" y="357" type="curve" smooth="yes"/>
      <point x="565" y="503"/>
      <point x="446" y="622"/>
      <point x="300" y="622" type="curve" smooth="yes"/>
      <point x="154" y="622"/>
      <point x="35" y="503"/>
      <point x="35" y="357" type="curve" smooth="yes"/>
      <point x="35" y="211"/>
      <point x="154" y="92"/>
      <point x="300" y="92" type="curve" smooth="yes"/>
      <point x="446" y="92"/>
      <point x="565" y="211"/>
    </contour>
  </outline>
</glyph>
<glyph name="mu" format="2">
  <advance width="600"/>
  <unicode hex="00B5"/>
  <outline>
    <contour>
      <point x="51" y="520" type="line"/>
      <point x="243" y="520" type="line"/>
      <point x="243" y="148" type="line"/>
      <point x="251" y="137"/>
      <point x="267" y="123"/>
      <point x="297" y="123" type="curve" smooth="yes"/>
      <point x="337" y="123"/>
      <point x="360" y="148"/>
      <point x="360" y="187" type="curve" smooth="yes"/>
      <point x="360" y="520" type="line"/>
      <point x="540" y="520" type="line"/>
      <point x="540" y="151" type="line"/>
      <point x="540" y="121"/>
      <point x="550" y="108"/>
      <point x="578" y="108" type="curve"/>
      <point x="597" y="108" type="line"/>
      <point x="597" y="0" type="line"/>
      <point x="578" y="-4"/>
      <point x="536" y="-8"/>
      <point x="499" y="-8" type="curve"/>
      <point x="444" y="-8"/>
      <point x="385" y="15"/>
      <point x="375" y="58" type="curve"/>
      <point x="367" y="15"/>
      <point x="328" y="-8"/>
      <point x="288" y="-8" type="curve" smooth="yes"/>
      <point x="260" y="-8"/>
      <point x="240" y="-4"/>
      <point x="224" y="12" type="curve"/>
      <point x="241" y="-17"/>
      <point x="243" y="-35"/>
      <point x="243" y="-53" type="curve"/>
      <point x="243" y="-192" type="line"/>
      <point x="51" y="-192" type="line"/>
    </contour>
  </outline>
</glyph>
<glyph name="AE" format="2">
  <advance width="612"/>
  <unicode hex="00C6"/>
  <outline>
    <contour>
      <point x="346" y="708" type="line"/>
      <point x="918" y="708" type="line"/>
      <point x="918" y="557" type="line"/>
      <point x="635" y="557" type="line"/>
      <point x="635" y="444" type="line"/>
      <point x="840" y="444" type="line"/>
      <point x="840" y="293" type="line"/>
      <point x="635" y="293" type="line"/>
      <point x="635" y="150" type="line"/>
      <point x="918" y="150" type="line"/>
      <point x="918" y="0" type="line"/>
      <point x="443" y="0" type="line"/>
      <point x="443" y="153" type="line"/>
      <point x="271" y="153" type="line"/>
      <point x="198" y="0" type="line"/>
      <point x="-4" y="0" type="line"/>
    </contour>
    <contour>
      <point x="443" y="556" type="line"/>
      <point x="326" y="304" type="line"/>
      <point x="443" y="304" type="line"/>
    </contour>
  </outline>
</glyph>
<glyph name="Eth" format="2">
  <advance width="600"/>
  <unicode hex="00D0"/>
  <outline>
    <contour>
      <point x="3" y="439" type="line"/>
      <point x="316" y="439" type="line"/>
      <point x="316" y="299" type="line"/>
      <point x="3" y="299" type="line"/>
    </contour>
    <component base="D"/>
  </outline>
</glyph>
<glyph name="ae" format="2">
  <advance width="512"/>
  <unicode hex="00E6"/>
  <outline>
    <contour>
      <point x="254" y="528" type="curve" smooth="yes"/>
      <point x="327" y="528"/>
      <point x="376" y="510"/>
      <point x="428" y="458" type="curve"/>
      <point x="453" y="498"/>
      <point x="523" y="528"/>
      <point x="593" y="528" type="curve" smooth="yes"/>
      <point x="747" y="528"/>
      <point x="854" y="453"/>
      <point x="854" y="286" type="curve" smooth="yes"/>
      <point x="854" y="259"/>
      <point x="850" y="229"/>
      <point x="843" y="212" type="curve"/>
      <point x="505" y="212" type="line"/>
      <point x="505" y="166"/>
      <point x="537" y="124"/>
      <point x="622" y="124" type="curve" smooth="yes"/>
      <point x="698" y="124"/>
      <point x="755" y="157"/>
      <point x="775" y="173" type="curve"/>
      <point x="842" y="65" type="line"/>
      <point x="778" y="30"/>
      <point x="706" y="-8"/>
      <point x="584" y="-8" type="curve" smooth="yes"/>
      <point x="508" y="-8"/>
      <point x="439" y="27"/>
      <point x="410" y="72" type="curve"/>
      <point x="352" y="12"/>
      <point x="297" y="-8"/>
      <point x="194" y="-8" type="curve" smooth="yes"/>
      <point x="84" y="-8"/>
      <point x="24" y="52"/>
      <point x="24" y="156" type="curve" smooth="yes"/>
      <point x="24" y="255"/>
      <point x="111" y="316"/>
      <point x="251" y="316" type="curve" smooth="yes"/>
      <point x="326" y="316" type="line"/>
      <point x="326" y="333" type="line" smooth="yes"/>
      <point x="326" y="381"/>
      <point x="294" y="406"/>
      <point x="234" y="406" type="curve" smooth="yes"/>
      <point x="189" y="406"/>
      <point x="132" y="390"/>
      <point x="108" y="371" type="curve"/>
      <point x="53" y="473" type="line"/>
      <point x="110" y="510"/>
      <point x="175" y="528"/>
    </contour>
    <contour>
      <point x="326" y="205" type="line"/>
      <point x="262" y="205" type="line" smooth="yes"/>
      <point x="226" y="205"/>
      <point x="208" y="191"/>
      <point x="208" y="162" type="curve" smooth="yes"/>
      <point x="208" y="134"/>
      <point x="227" y="117"/>
      <point x="258" y="117" type="curve" smooth="yes"/>
      <point x="288" y="117"/>
      <point x="312" y="130"/>
      <point x="326" y="155" type="curve"/>
    </contour>
    <contour>
      <point x="589" y="399" type="curve" smooth="yes"/>
      <point x="538" y="399"/>
      <point x="505" y="368"/>
      <point x="505" y="310" type="curve"/>
      <point x="674" y="310" type="line"/>
      <point x="674" y="315" type="line" smooth="yes"/>
      <point x="674" y="371"/>
      <point x="640" y="399"/>
    </contour>
  </outline>
</glyph>
<glyph name="eth" format="2">
  <advance width="600"/>
  <unicode hex="00F0"/>
  <outline>
    <contour>
      <point x="145" y="716" type="curve"/>
      <point x="371" y="716" type="line"/>
      <point x="382" y="709"/>
      <point x="392" y="702"/>
      <point x="402" y="694" type="curve"/>
      <point x="561" y="716" type="line"/>
      <point x="561" y="608" type="line"/>
      <point x="500" y="599" type="line"/>
      <point x="546" y="499"/>
      <point x="579" y="405"/>
      <point x="579" y="276" type="curve" smooth="yes"/>
      <point x="579" y="109"/>
      <point x="484" y="-8"/>
      <point x="306" y="-8" type="curve" smooth="yes"/>
      <point x="115" y="-8"/>
      <point x="24" y="98"/>
      <point x="24" y="274" type="curve" smooth="yes"/>
      <point x="24" y="422"/>
      <point x="114" y="528"/>
      <point x="238" y="528" type="curve" smooth="yes"/>
      <point x="304" y="528"/>
      <point x="335" y="500"/>
      <point x="360" y="468" type="curve"/>
      <point x="355" y="496"/>
      <point x="343" y="537"/>
      <point x="320" y="571" type="curve"/>
      <point x="124" y="541" type="line"/>
      <point x="124" y="656" type="line"/>
      <point x="218" y="669" type="line"/>
      <point x="193" y="689"/>
      <point x="168" y="705"/>
    </contour>
    <contour>
      <point x="304" y="393" type="curve" smooth="yes"/>
      <point x="242" y="393"/>
      <point x="216" y="344"/>
      <point x="216" y="269" type="curve" smooth="yes"/>
      <point x="216" y="192"/>
      <point x="241" y="152"/>
      <point x="300" y="152" type="curve" smooth="yes"/>
      <point x="360" y="152"/>
      <point x="387" y="197"/>
      <point x="387" y="268" type="curve" smooth="yes"/>
      <point x="387" y="299"/>
      <point x="384" y="320"/>
      <point x="377" y="351" type="curve"/>
      <point x="360" y="375"/>
      <point x="334" y="393"/>
    </contour>
  </outline>
</glyph>
<glyph name="oslash" format="2">
  <advance width="576"/>
  <unicode hex="00F8"/>
  <outline>
    <contour>
      <point x="447" y="520" type="line"/>
      <point x="587" y="520" type="line"/>
      <point x="183" y="0" type="line"/>
      <point x="43" y="0" type="line"/>
    </contour>
    <component base="o"/>
  </outline>
</glyph>
<glyph name="thorn" format="2">
  <advance width="600"/>
  <unicode hex="00FE"/>
  <outline>
    <contour>
      <point x="64" y="708" type="line"/>
      <point x="252" y="708" type="line"/>
      <point x="252" y="461" type="line"/>
      <point x="280" y="505"/>
      <point x="328" y="528"/>
      <point x="390" y="528" type="curve" smooth="yes"/>
      <point x="529" y="528"/>
      <point x="628" y="416"/>
      <point x="628" y="259" type="curve" smooth="yes"/>
      <point x="628" y="100"/>
      <point x="535" y="-8"/>
      <point x="399" y="-8" type="curve" smooth="yes"/>
      <point x="331" y="-8"/>
      <point x="284" y="11"/>
      <point x="252" y="52" type="curve"/>
      <point x="252" y="-191" type="line"/>
      <point x="64" y="-191" type="line"/>
    </contour>
    <contour>
      <point x="344" y="388" type="curve" smooth="yes"/>
      <point x="305" y="388"/>
      <point x="270" y="367"/>
      <point x="252" y="331" type="curve"/>
      <point x="252" y="190" type="line"/>
      <point x="271" y="152"/>
      <point x="306" y="128"/>
      <point x="340" y="128" type="curve" smooth="yes"/>
      <point x="404" y="128"/>
      <point x="436" y="172"/>
      <point x="436" y="260" type="curve" smooth="yes"/>
      <point x="436" y="341"/>
      <point x="403" y="388"/>
    </contour>
  </outline>
</glyph>
<glyph name="dotlessi" format="2">
  <advance width="576"/>
  <unicode hex="0131"/>
  <anchor x="170" y="686" name="AccentCenter"/>
  <outline>
    <contour>
      <point x="10" y="520" type="line"/>
      <point x="286" y="520" type="line"/>
      <point x="286" y="0" type="line"/>
      <point x="94" y="0" type="line"/>
      <point x="94" y="374" type="line"/>
      <point x="10" y="374" type="line"/>
    </contour>
  </outline>
</glyph>
<glyph name="acutecomb" format="2">
  <unicode hex="0301"/>
  <anchor x="0" y="840" name="_AccentCenter"/>
  <outline>
    <contour>
      <point x="105" y="929" type="line"/>
      <point x="152" y="798" type="line"/>
      <point x="-118" y="723" type="line"/>
      <point x="-163" y="826" type="line"/>
    </contour>
  </outline>
</glyph>
<glyph name="uni0304" format="2">
  <unicode hex="0304"/>
  <anchor x="0" y="833" name="AccentCenter"/>
  <outline>
    <contour>
      <point x="-156" y="885" type="line"/>
      <point x="156" y="885" type="line"/>
      <point x="156" y="781" type="line"/>
      <point x="-156" y="781" type="line"/>
    </contour>
  </outline>
</glyph>
<glyph name="Euro" format="2">
  <advance width="600"/>
  <unicode hex="20AC"/>
  <outline>
    <contour>
      <point x="369" y="716" type="curve" smooth="yes"/>
      <point x="462" y="716"/>
      <point x="512" y="700"/>
      <point x="577" y="660" type="curve"/>
      <point x="518" y="529" type="line"/>
      <point x="479" y="554"/>
      <point x="451" y="567"/>
      <point x="398" y="567" type="curve" smooth="yes"/>
      <point x="304" y="567"/>
      <point x="244" y="477"/>
      <point x="244" y="345" type="curve" smooth="yes"/>
      <point x="244" y="210"/>
      <point x="283" y="144"/>
      <point x="386" y="144" type="curve" smooth="yes"/>
      <point x="441" y="144"/>
      <point x="491" y="158"/>
      <point x="537" y="190" type="curve"/>
      <point x="590" y="51" type="line"/>
      <point x="530" y="7"/>
      <point x="459" y="-8"/>
      <point x="371" y="-8" type="curve" smooth="yes"/>
      <point x="171" y="-8"/>
      <point x="52" y="124"/>
      <point x="52" y="345" type="curve" smooth="yes"/>
      <point x="52" y="569"/>
      <point x="179" y="716"/>
    </contour>
    <contour>
      <point x="15" y="507" type="line"/>
      <point x="507" y="507" type="line"/>
      <point x="454" y="363" type="line"/>
      <point x="15" y="363" type="line"/>
    </contour>
    <contour>
      <point x="15" y="328" type="line"/>
      <point x="441" y="328" type="line"/>
      <point x="388" y="184" type="line"/>
      <point x="15" y="184" type="line"/>
    </contour>
  </outline>
</glyph>
<glyph name="a.ss01" format="2">
  <advance width="600"/>
  <outline>
    <contour>
      <point x="301" y="528" type="curve" smooth="yes"/>
      <point x="469" y="528"/>
      <point x="540" y="452"/>
      <point x="540" y="307" type="curve" smooth="yes"/>
      <point x="540" y="0" type="line" smooth="yes"/>
      <point x="540" y="0"/>
      <point x="354" y="0"/>
      <point x="354" y="0" type="curve" smooth="yes"/>
      <point x="354" y="0"/>
      <point x="354" y="70"/>
      <point x="354" y="70" type="curve"/>
      <point x="337" y="39"/>
      <point x="290" y="-8"/>
      <point x="217" y="-8" type="curve" smooth="yes"/>
      <point x="111" y="-8"/>
      <point x="68" y="56"/>
      <point x="68" y="147" type="curve" smooth="yes"/>
      <point x="68" y="246"/>
      <point x="130" y="310"/>
      <point x="281" y="310" type="curve" smooth="yes"/>
      <point x="354" y="310" type="line"/>
      <point x="354" y="325" type="line" smooth="yes"/>
      <point x="354" y="371"/>
      <point x="333" y="399"/>
      <point x="267" y="399" type="curve" smooth="yes"/>
      <point x="211" y="399"/>
      <point x="166" y="385"/>
      <point x="140" y="375" type="curve"/>
      <point x="106" y="497" type="line"/>
      <point x="163" y="518"/>
      <point x="215" y="528"/>
    </contour>
    <contour>
      <point x="354" y="199" type="line"/>
      <point x="312" y="199" type="line" smooth="yes"/>
      <point x="272" y="199"/>
      <point x="253" y="188"/>
      <point x="253" y="159" type="curve" smooth="yes"/>
      <point x="253" y="132"/>
      <point x="264" y="117"/>
      <point x="300" y="117" type="curve" smooth="yes"/>
      <point x="322" y="117"/>
      <point x="341" y="130"/>
      <point x="354" y="148" type="curve"/>
    </contour>
  </outline>
</glyph>
<glyph name="ampersand_ampersand.liga" format="2">
  <advance width="1200"/>
  <outline>
    <contour>
      <point x="792" y="716" type="curve" smooth="yes"/>
      <point x="851" y="716"/>
      <point x="885" y="705"/>
      <point x="943" y="675" type="curve"/>
      <point x="897" y="554" type="line"/>
      <point x="862" y="571"/>
      <point x="849" y="577"/>
      <point x="823" y="577" type="curve" smooth="yes"/>
      <point x="796" y="577"/>
      <point x="755" y="563"/>
      <point x="755" y="514" type="curve" smooth="yes"/>
      <point x="755" y="468"/>
      <point x="771" y="473"/>
      <point x="792" y="426" type="curve" smooth="yes"/>
      <point x="877" y="237" type="line"/>
      <point x="894" y="440" type="line"/>
      <point x="1074" y="425" type="line"/>
      <point x="1060" y="358" type="line"/>
      <point x="981" y="364" type="line"/>
      <point x="981" y="364"/>
      <point x="930" y="170"/>
      <point x="930" y="170" type="curve"/>
      <point x="1066" y="0" type="line"/>
      <point x="967" y="0" type="line"/>
      <point x="897" y="90" type="line"/>
      <point x="856" y="30"/>
      <point x="781" y="-8"/>
      <point x="698" y="-8" type="curve" smooth="yes"/>
      <point x="614" y="-8"/>
      <point x="568" y="26"/>
      <point x="523" y="89" type="curve"/>
      <point x="480" y="31"/>
      <point x="410" y="-8"/>
      <point x="327" y="-8" type="curve" smooth="yes"/>
      <point x="209" y="-8"/>
      <point x="138" y="74"/>
      <point x="138" y="170" type="curve" smooth="yes"/>
      <point x="138" y="260"/>
      <point x="199" y="326"/>
      <point x="261" y="376" type="curve" smooth="yes"/>
      <point x="288" y="397" type="line"/>
      <point x="247" y="455"/>
      <point x="231" y="495"/>
      <point x="231" y="554" type="curve" smooth="yes"/>
      <point x="231" y="626"/>
      <point x="288" y="716"/>
      <point x="421" y="716" type="curve" smooth="yes"/>
      <point x="480" y="716"/>
      <point x="514" y="705"/>
      <point x="572" y="675" type="curve"/>
      <point x="546" y="620" type="line"/>
      <point x="511" y="637"/>
      <point x="478" y="652"/>
      <point x="421" y="652" type="curve" smooth="yes"/>
      <point x="345" y="652"/>
      <point x="311" y="600"/>
      <point x="311" y="543" type="curve" smooth="yes"/>
      <point x="311" y="497"/>
      <point x="327" y="461"/>
      <point x="359" y="420" type="curve" smooth="yes"/>
      <point x="507" y="231" type="line"/>
      <point x="570" y="421" type="line"/>
      <point x="643" y="421" type="line"/>
      <point x="614" y="467"/>
      <point x="602" y="504"/>
      <point x="602" y="554" type="curve" smooth="yes"/>
      <point x="602" y="626"/>
      <point x="659" y="716"/>
    </contour>
    <contour>
      <point x="689" y="358" type="line"/>
      <point x="623" y="358" type="line"/>
      <point x="557" y="161" type="line"/>
      <point x="599" y="102"/>
      <point x="630" y="56"/>
      <point x="706" y="56" type="curve" smooth="yes"/>
      <point x="766" y="56"/>
      <point x="823" y="92"/>
      <point x="851" y="149" type="curve"/>
    </contour>
    <contour>
      <point x="327" y="346" type="line"/>
      <point x="297" y="323" type="line" smooth="yes"/>
      <point x="246" y="283"/>
      <point x="217" y="230"/>
      <point x="217" y="170" type="curve" smooth="yes"/>
      <point x="217" y="94"/>
      <point x="263" y="56"/>
      <point x="335" y="56" type="curve" smooth="yes"/>
      <point x="395" y="56"/>
      <point x="452" y="92"/>
      <point x="480" y="149" type="curve"/>
    </contour>
  </outline>
</glyph>
<glyph name="equal_equal.liga" format="2">
  <advance width="1200"/>
  <outline>
    <contour>
      <point x="140" y="454" type="line"/>
      <point x="1060" y="454" type="line"/>
      <point x="1060" y="324" type="line"/>
      <point x="140" y="324" type="line"/>
    </contour>
    <contour>
      <point x="140" y="248" type="line"/>
      <point x="1060" y="248" type="line"/>
      <point x="1060" y="118" type="line"/>
      <point x="140" y="118" type="line"/>
    </contour>
  </outline>
</glyph>
<glyph name="r.ss01" format="2">
  <advance width="600"/>
  <outline>
    <contour>
      <point x="24" y="520" type="line"/>
      <point x="289" y="520" type="line"/>
      <point x="289" y="403" type="line"/>
      <point x="319" y="467"/>
      <point x="375" y="528"/>
      <point x="480" y="528" type="curve" smooth="yes"/>
      <point x="523" y="528"/>
      <point x="544" y="522"/>
      <point x="568" y="514" type="curve"/>
      <point x="531" y="357" type="line"/>
      <point x="517" y="361"/>
      <point x="503" y="366"/>
      <point x="471" y="366" type="curve" smooth="yes"/>
      <point x="405" y="366"/>
      <point x="365" y="332"/>
      <point x="340" y="274" type="curve"/>
      <point x="340" y="0" type="line"/>
      <point x="148" y="0" type="line"/>
      <point x="148" y="356" type="line"/>
      <point x="36" y="356" type="line"/>
    </contour>
  </outline>
</glyph>
